<svg xmlns="http://www.w3.org/2000/svg" version="1.1" xmlns:xlink="http://www.w3.org/1999/xlink" xmlns:svgjs="http://svgjs.com/svgjs" width="1440" height="500" preserveAspectRatio="none" viewBox="0 0 1440 500"><g mask="url(&quot;#SvgjsMask1165&quot;)" fill="none"><rect width="1440" height="500" x="0" y="0" fill="url(#SvgjsLinearGradient1166)"></rect><path d="M0.88 171.72L65.83 209.22L65.83 284.22L0.88 321.72L-64.07 284.22L-64.07 209.22zM0.88 396.72L65.83 434.22L65.83 509.22L0.88 546.72L-64.07 509.22L-64.07 434.22zM130.79 -53.28L195.74 -15.78L195.74 59.22L130.79 96.72L65.83 59.22L65.83 -15.78zM130.79 171.72L195.74 209.22L195.74 284.22L130.79 321.72L65.83 284.22L65.83 209.22zM195.74 284.22L260.69 321.72L260.69 396.72L195.74 434.22L130.79 396.72L130.79 321.72zM130.79 396.72L195.74 434.22L195.74 509.22L130.79 546.72L65.83 509.22L65.83 434.22zM325.65 59.22L390.6 96.72L390.6 171.72L325.65 209.22L260.69 171.72L260.69 96.72zM455.56 59.22L520.51 96.72L520.51 171.72L455.56 209.22L390.6 171.72L390.6 96.72zM585.46 284.22L650.42 321.72L650.42 396.72L585.46 434.22L520.51 396.72L520.51 321.72zM780.32 -53.28L845.28 -15.78L845.28 59.22L780.32 96.72L715.37 59.22L715.37 -15.78zM1040.14 -53.28L1105.09 -15.78L1105.09 59.22L1040.14 96.72L975.19 59.22L975.19 -15.78zM1040.14 396.72L1105.09 434.22L1105.09 509.22L1040.14 546.72L975.19 509.22L975.19 434.22zM1170.05 -53.28L1235 -15.78L1235 59.22L1170.05 96.72L1105.09 59.22L1105.09 -15.78zM1364.91 59.22L1429.86 96.72L1429.86 171.72L1364.91 209.22L1299.96 171.72L1299.96 96.72zM1429.86 -53.28L1494.82 -15.78L1494.82 59.22L1429.86 96.72L1364.91 59.22L1364.91 -15.78zM1429.86 171.72L1494.82 209.22L1494.82 284.22L1429.86 321.72L1364.91 284.22L1364.91 209.22z" stroke="#03305d" stroke-width="2"></path><path d="M-6.62 171.72 a7.5 7.5 0 1 0 15 0 a7.5 7.5 0 1 0 -15 0zM58.33 209.22 a7.5 7.5 0 1 0 15 0 a7.5 7.5 0 1 0 -15 0zM58.33 284.22 a7.5 7.5 0 1 0 15 0 a7.5 7.5 0 1 0 -15 0zM-6.62 321.72 a7.5 7.5 0 1 0 15 0 a7.5 7.5 0 1 0 -15 0zM-71.57 284.22 a7.5 7.5 0 1 0 15 0 a7.5 7.5 0 1 0 -15 0zM-71.57 209.22 a7.5 7.5 0 1 0 15 0 a7.5 7.5 0 1 0 -15 0zM-6.62 396.72 a7.5 7.5 0 1 0 15 0 a7.5 7.5 0 1 0 -15 0zM58.33 434.22 a7.5 7.5 0 1 0 15 0 a7.5 7.5 0 1 0 -15 0zM58.33 509.22 a7.5 7.5 0 1 0 15 0 a7.5 7.5 0 1 0 -15 0zM-6.62 546.72 a7.5 7.5 0 1 0 15 0 a7.5 7.5 0 1 0 -15 0zM-71.57 509.22 a7.5 7.5 0 1 0 15 0 a7.5 7.5 0 1 0 -15 0zM-71.57 434.22 a7.5 7.5 0 1 0 15 0 a7.5 7.5 0 1 0 -15 0zM123.29 -53.28 a7.5 7.5 0 1 0 15 0 a7.5 7.5 0 1 0 -15 0zM188.24 -15.78 a7.5 7.5 0 1 0 15 0 a7.5 7.5 0 1 0 -15 0zM188.24 59.22 a7.5 7.5 0 1 0 15 0 a7.5 7.5 0 1 0 -15 0zM123.29 96.72 a7.5 7.5 0 1 0 15 0 a7.5 7.5 0 1 0 -15 0zM58.33 59.22 a7.5 7.5 0 1 0 15 0 a7.5 7.5 0 1 0 -15 0zM58.33 -15.78 a7.5 7.5 0 1 0 15 0 a7.5 7.5 0 1 0 -15 0zM123.29 171.72 a7.5 7.5 0 1 0 15 0 a7.5 7.5 0 1 0 -15 0zM188.24 209.22 a7.5 7.5 0 1 0 15 0 a7.5 7.5 0 1 0 -15 0zM188.24 284.22 a7.5 7.5 0 1 0 15 0 a7.5 7.5 0 1 0 -15 0zM123.29 321.72 a7.5 7.5 0 1 0 15 0 a7.5 7.5 0 1 0 -15 0zM253.19 321.72 a7.5 7.5 0 1 0 15 0 a7.5 7.5 0 1 0 -15 0zM253.19 396.72 a7.5 7.5 0 1 0 15 0 a7.5 7.5 0 1 0 -15 0zM188.24 434.22 a7.5 7.5 0 1 0 15 0 a7.5 7.5 0 1 0 -15 0zM123.29 396.72 a7.5 7.5 0 1 0 15 0 a7.5 7.5 0 1 0 -15 0zM188.24 509.22 a7.5 7.5 0 1 0 15 0 a7.5 7.5 0 1 0 -15 0zM123.29 546.72 a7.5 7.5 0 1 0 15 0 a7.5 7.5 0 1 0 -15 0zM318.15 59.22 a7.5 7.5 0 1 0 15 0 a7.5 7.5 0 1 0 -15 0zM383.1 96.72 a7.5 7.5 0 1 0 15 0 a7.5 7.5 0 1 0 -15 0zM383.1 171.72 a7.5 7.5 0 1 0 15 0 a7.5 7.5 0 1 0 -15 0zM318.15 209.22 a7.5 7.5 0 1 0 15 0 a7.5 7.5 0 1 0 -15 0zM253.19 171.72 a7.5 7.5 0 1 0 15 0 a7.5 7.5 0 1 0 -15 0zM253.19 96.72 a7.5 7.5 0 1 0 15 0 a7.5 7.5 0 1 0 -15 0zM448.06 59.22 a7.5 7.5 0 1 0 15 0 a7.5 7.5 0 1 0 -15 0zM513.01 96.72 a7.5 7.5 0 1 0 15 0 a7.5 7.5 0 1 0 -15 0zM513.01 171.72 a7.5 7.5 0 1 0 15 0 a7.5 7.5 0 1 0 -15 0zM448.06 209.22 a7.5 7.5 0 1 0 15 0 a7.5 7.5 0 1 0 -15 0zM577.96 284.22 a7.5 7.5 0 1 0 15 0 a7.5 7.5 0 1 0 -15 0zM642.92 321.72 a7.5 7.5 0 1 0 15 0 a7.5 7.5 0 1 0 -15 0zM642.92 396.72 a7.5 7.5 0 1 0 15 0 a7.5 7.5 0 1 0 -15 0zM577.96 434.22 a7.5 7.5 0 1 0 15 0 a7.5 7.5 0 1 0 -15 0zM513.01 396.72 a7.5 7.5 0 1 0 15 0 a7.5 7.5 0 1 0 -15 0zM513.01 321.72 a7.5 7.5 0 1 0 15 0 a7.5 7.5 0 1 0 -15 0zM772.82 -53.28 a7.5 7.5 0 1 0 15 0 a7.5 7.5 0 1 0 -15 0zM837.78 -15.78 a7.5 7.5 0 1 0 15 0 a7.5 7.5 0 1 0 -15 0zM837.78 59.22 a7.5 7.5 0 1 0 15 0 a7.5 7.5 0 1 0 -15 0zM772.82 96.72 a7.5 7.5 0 1 0 15 0 a7.5 7.5 0 1 0 -15 0zM707.87 59.22 a7.5 7.5 0 1 0 15 0 a7.5 7.5 0 1 0 -15 0zM707.87 -15.78 a7.5 7.5 0 1 0 15 0 a7.5 7.5 0 1 0 -15 0zM1032.64 -53.28 a7.5 7.5 0 1 0 15 0 a7.5 7.5 0 1 0 -15 0zM1097.59 -15.78 a7.5 7.5 0 1 0 15 0 a7.5 7.5 0 1 0 -15 0zM1097.59 59.22 a7.5 7.5 0 1 0 15 0 a7.5 7.5 0 1 0 -15 0zM1032.64 96.72 a7.5 7.5 0 1 0 15 0 a7.5 7.5 0 1 0 -15 0zM967.69 59.22 a7.5 7.5 0 1 0 15 0 a7.5 7.5 0 1 0 -15 0zM967.69 -15.78 a7.5 7.5 0 1 0 15 0 a7.5 7.5 0 1 0 -15 0zM1032.64 396.72 a7.5 7.5 0 1 0 15 0 a7.5 7.5 0 1 0 -15 0zM1097.59 434.22 a7.5 7.5 0 1 0 15 0 a7.5 7.5 0 1 0 -15 0zM1097.59 509.22 a7.5 7.5 0 1 0 15 0 a7.5 7.5 0 1 0 -15 0zM1032.64 546.72 a7.5 7.5 0 1 0 15 0 a7.5 7.5 0 1 0 -15 0zM967.69 509.22 a7.5 7.5 0 1 0 15 0 a7.5 7.5 0 1 0 -15 0zM967.69 434.22 a7.5 7.5 0 1 0 15 0 a7.5 7.5 0 1 0 -15 0zM1162.55 -53.28 a7.5 7.5 0 1 0 15 0 a7.5 7.5 0 1 0 -15 0zM1227.5 -15.78 a7.5 7.5 0 1 0 15 0 a7.5 7.5 0 1 0 -15 0zM1227.5 59.22 a7.5 7.5 0 1 0 15 0 a7.5 7.5 0 1 0 -15 0zM1162.55 96.72 a7.5 7.5 0 1 0 15 0 a7.5 7.5 0 1 0 -15 0zM1357.41 59.22 a7.5 7.5 0 1 0 15 0 a7.5 7.5 0 1 0 -15 0zM1422.36 96.72 a7.5 7.5 0 1 0 15 0 a7.5 7.5 0 1 0 -15 0zM1422.36 171.72 a7.5 7.5 0 1 0 15 0 a7.5 7.5 0 1 0 -15 0zM1357.41 209.22 a7.5 7.5 0 1 0 15 0 a7.5 7.5 0 1 0 -15 0zM1292.46 171.72 a7.5 7.5 0 1 0 15 0 a7.5 7.5 0 1 0 -15 0zM1292.46 96.72 a7.5 7.5 0 1 0 15 0 a7.5 7.5 0 1 0 -15 0zM1422.36 -53.28 a7.5 7.5 0 1 0 15 0 a7.5 7.5 0 1 0 -15 0zM1487.32 -15.78 a7.5 7.5 0 1 0 15 0 a7.5 7.5 0 1 0 -15 0zM1487.32 59.22 a7.5 7.5 0 1 0 15 0 a7.5 7.5 0 1 0 -15 0zM1357.41 -15.78 a7.5 7.5 0 1 0 15 0 a7.5 7.5 0 1 0 -15 0zM1487.32 209.22 a7.5 7.5 0 1 0 15 0 a7.5 7.5 0 1 0 -15 0zM1487.32 284.22 a7.5 7.5 0 1 0 15 0 a7.5 7.5 0 1 0 -15 0zM1422.36 321.72 a7.5 7.5 0 1 0 15 0 a7.5 7.5 0 1 0 -15 0zM1357.41 284.22 a7.5 7.5 0 1 0 15 0 a7.5 7.5 0 1 0 -15 0z" fill="#03305d"></path><path d="M13.6 126.35L56.9 151.35L56.9 201.35L13.6 226.35L-29.7 201.35L-29.7 151.35zM56.9 501.35L100.2 526.35L100.2 576.35L56.9 601.35L13.6 576.35L13.6 526.35zM143.51 51.35L186.81 76.35L186.81 126.35L143.51 151.35L100.2 126.35L100.2 76.35zM100.2 126.35L143.51 151.35L143.51 201.35L100.2 226.35L56.9 201.35L56.9 151.35zM143.51 201.35L186.81 226.35L186.81 276.35L143.51 301.35L100.2 276.35L100.2 226.35zM100.2 276.35L143.51 301.35L143.51 351.35L100.2 376.35L56.9 351.35L56.9 301.35zM143.51 351.35L186.81 376.35L186.81 426.35L143.51 451.35L100.2 426.35L100.2 376.35zM100.2 426.35L143.51 451.35L143.51 501.35L100.2 526.35L56.9 501.35L56.9 451.35zM143.51 501.35L186.81 526.35L186.81 576.35L143.51 601.35L100.2 576.35L100.2 526.35zM186.81 -23.65L230.11 1.35L230.11 51.35L186.81 76.35L143.51 51.35L143.51 1.35zM230.11 51.35L273.42 76.35L273.42 126.35L230.11 151.35L186.81 126.35L186.81 76.35zM230.11 201.35L273.42 226.35L273.42 276.35L230.11 301.35L186.81 276.35L186.81 226.35zM186.81 276.35L230.11 301.35L230.11 351.35L186.81 376.35L143.51 351.35L143.51 301.35zM230.11 351.35L273.42 376.35L273.42 426.35L230.11 451.35L186.81 426.35L186.81 376.35zM186.81 426.35L230.11 451.35L230.11 501.35L186.81 526.35L143.51 501.35L143.51 451.35zM316.72 201.35L360.02 226.35L360.02 276.35L316.72 301.35L273.42 276.35L273.42 226.35zM316.72 501.35L360.02 526.35L360.02 576.35L316.72 601.35L273.42 576.35L273.42 526.35zM360.02 126.35L403.32 151.35L403.32 201.35L360.02 226.35L316.72 201.35L316.72 151.35zM489.93 51.35L533.23 76.35L533.23 126.35L489.93 151.35L446.63 126.35L446.63 76.35zM489.93 201.35L533.23 226.35L533.23 276.35L489.93 301.35L446.63 276.35L446.63 226.35zM446.63 276.35L489.93 301.35L489.93 351.35L446.63 376.35L403.32 351.35L403.32 301.35zM489.93 501.35L533.23 526.35L533.23 576.35L489.93 601.35L446.63 576.35L446.63 526.35zM533.23 -23.65L576.53 1.35L576.53 51.35L533.23 76.35L489.93 51.35L489.93 1.35zM533.23 126.35L576.53 151.35L576.53 201.35L533.23 226.35L489.93 201.35L489.93 151.35zM576.53 201.35L619.84 226.35L619.84 276.35L576.53 301.35L533.23 276.35L533.23 226.35zM663.14 51.35L706.44 76.35L706.44 126.35L663.14 151.35L619.84 126.35L619.84 76.35zM663.14 351.35L706.44 376.35L706.44 426.35L663.14 451.35L619.84 426.35L619.84 376.35zM706.44 -23.65L749.74 1.35L749.74 51.35L706.44 76.35L663.14 51.35L663.14 1.35zM749.74 51.35L793.05 76.35L793.05 126.35L749.74 151.35L706.44 126.35L706.44 76.35zM749.74 201.35L793.05 226.35L793.05 276.35L749.74 301.35L706.44 276.35L706.44 226.35zM706.44 426.35L749.74 451.35L749.74 501.35L706.44 526.35L663.14 501.35L663.14 451.35zM793.05 276.35L836.35 301.35L836.35 351.35L793.05 376.35L749.74 351.35L749.74 301.35zM836.35 351.35L879.65 376.35L879.65 426.35L836.35 451.35L793.05 426.35L793.05 376.35zM793.05 426.35L836.35 451.35L836.35 501.35L793.05 526.35L749.74 501.35L749.74 451.35zM836.35 501.35L879.65 526.35L879.65 576.35L836.35 601.35L793.05 576.35L793.05 526.35zM879.65 -23.65L922.95 1.35L922.95 51.35L879.65 76.35L836.35 51.35L836.35 1.35zM879.65 276.35L922.95 301.35L922.95 351.35L879.65 376.35L836.35 351.35L836.35 301.35zM922.95 351.35L966.26 376.35L966.26 426.35L922.95 451.35L879.65 426.35L879.65 376.35zM879.65 426.35L922.95 451.35L922.95 501.35L879.65 526.35L836.35 501.35L836.35 451.35zM922.95 501.35L966.26 526.35L966.26 576.35L922.95 601.35L879.65 576.35L879.65 526.35zM1009.56 201.35L1052.86 226.35L1052.86 276.35L1009.56 301.35L966.26 276.35L966.26 226.35zM966.26 276.35L1009.56 301.35L1009.56 351.35L966.26 376.35L922.95 351.35L922.95 301.35zM966.26 426.35L1009.56 451.35L1009.56 501.35L966.26 526.35L922.95 501.35L922.95 451.35zM1009.56 501.35L1052.86 526.35L1052.86 576.35L1009.56 601.35L966.26 576.35L966.26 526.35zM1052.86 -23.65L1096.16 1.35L1096.16 51.35L1052.86 76.35L1009.56 51.35L1009.56 1.35zM1096.16 201.35L1139.46 226.35L1139.46 276.35L1096.16 301.35L1052.86 276.35L1052.86 226.35zM1052.86 276.35L1096.16 301.35L1096.16 351.35L1052.86 376.35L1009.56 351.35L1009.56 301.35zM1096.16 351.35L1139.46 376.35L1139.46 426.35L1096.16 451.35L1052.86 426.35L1052.86 376.35zM1096.16 501.35L1139.46 526.35L1139.46 576.35L1096.16 601.35L1052.86 576.35L1052.86 526.35zM1182.77 51.35L1226.07 76.35L1226.07 126.35L1182.77 151.35L1139.46 126.35L1139.46 76.35zM1139.46 276.35L1182.77 301.35L1182.77 351.35L1139.46 376.35L1096.16 351.35L1096.16 301.35zM1182.77 501.35L1226.07 526.35L1226.07 576.35L1182.77 601.35L1139.46 576.35L1139.46 526.35zM1269.37 51.35L1312.67 76.35L1312.67 126.35L1269.37 151.35L1226.07 126.35L1226.07 76.35zM1226.07 126.35L1269.37 151.35L1269.37 201.35L1226.07 226.35L1182.77 201.35L1182.77 151.35zM1269.37 201.35L1312.67 226.35L1312.67 276.35L1269.37 301.35L1226.07 276.35L1226.07 226.35zM1226.07 276.35L1269.37 301.35L1269.37 351.35L1226.07 376.35L1182.77 351.35L1182.77 301.35zM1226.07 426.35L1269.37 451.35L1269.37 501.35L1226.07 526.35L1182.77 501.35L1182.77 451.35zM1355.98 51.35L1399.28 76.35L1399.28 126.35L1355.98 151.35L1312.67 126.35L1312.67 76.35zM1355.98 201.35L1399.28 226.35L1399.28 276.35L1355.98 301.35L1312.67 276.35L1312.67 226.35zM1312.67 426.35L1355.98 451.35L1355.98 501.35L1312.67 526.35L1269.37 501.35L1269.37 451.35zM1355.98 501.35L1399.28 526.35L1399.28 576.35L1355.98 601.35L1312.67 576.35L1312.67 526.35zM1399.28 -23.65L1442.58 1.35L1442.58 51.35L1399.28 76.35L1355.98 51.35L1355.98 1.35zM1399.28 126.35L1442.58 151.35L1442.58 201.35L1399.28 226.35L1355.98 201.35L1355.98 151.35zM1442.58 351.35L1485.88 376.35L1485.88 426.35L1442.58 451.35L1399.28 426.35L1399.28 376.35zM1399.28 426.35L1442.58 451.35L1442.58 501.35L1399.28 526.35L1355.98 501.35L1355.98 451.35z" stroke="rgba(6, 80, 156, 0.93)" stroke-width="2"></path></g><defs><mask id="SvgjsMask1165"><rect width="1440" height="500" fill="#ffffff"></rect></mask><linearGradient x1="0%" y1="50%" x2="100%" y2="50%" gradientUnits="userSpaceOnUse" id="SvgjsLinearGradient1166"><stop stop-color="#0e2a47" offset="0"></stop><stop stop-color="rgba(0, 158, 17, 1)" offset="1"></stop></linearGradient></defs></svg>