<?xml version="1.0" standalone="no"?>
<!DOCTYPE svg PUBLIC "-//W3C//DTD SVG 20010904//EN"
 "http://www.w3.org/TR/2001/REC-SVG-20010904/DTD/svg10.dtd">
<svg version="1.0" xmlns="http://www.w3.org/2000/svg"
 width="566.000000pt" height="401.000000pt" viewBox="0 0 566.000000 401.000000"
 preserveAspectRatio="xMidYMid meet">

<g transform="translate(0.000000,401.000000) scale(0.100000,-0.100000)"
fill="#000000" stroke="none">
<path d="M3245 3380 c-171 -26 -314 -125 -423 -293 -43 -66 -50 -82 -45 -112
12 -74 -38 -149 -128 -196 -26 -13 -48 -36 -68 -71 l-30 -52 21 -29 c12 -17
44 -44 71 -61 l50 -31 -74 -3 c-41 -2 -249 1 -463 7 -214 6 -392 8 -395 6 -3
-3 8 -17 24 -31 l30 -25 210 6 c171 5 357 8 798 15 4 0 12 10 18 23 5 12 16
33 24 47 8 14 15 37 15 51 0 67 56 157 111 179 36 15 79 4 139 -36 19 -13 41
-24 50 -23 8 0 52 54 98 121 l84 120 -59 52 c-83 73 -113 103 -113 114 0 23
47 65 104 94 78 40 178 66 286 74 90 7 141 27 121 47 -14 14 -371 19 -456 7z"/>
<path d="M3305 2835 c-51 -67 -85 -119 -79 -124 5 -5 257 -194 559 -422 303
-227 668 -502 813 -611 145 -110 273 -203 285 -207 12 -5 31 -4 42 1 26 13
145 175 145 198 0 11 -10 30 -22 44 -22 24 -246 185 -649 466 -278 194 -444
319 -618 466 -238 201 -365 304 -377 304 -6 0 -51 -52 -99 -115z"/>
<path d="M3620 2846 c0 -2 34 -29 75 -60 l74 -56 98 0 c54 0 179 4 278 10 99
5 374 17 610 26 237 9 431 17 433 19 6 5 -170 14 -623 30 -242 9 -543 20 -670
25 -258 11 -275 12 -275 6z"/>
<path d="M3905 2645 c17 -14 53 -42 82 -61 l52 -36 258 11 c142 7 332 16 423
21 91 5 235 13 320 16 185 9 159 19 -75 28 -88 4 -308 13 -490 21 -181 8 -391
17 -465 20 l-135 6 30 -26z"/>
<path d="M2949 2442 c-438 -350 -534 -425 -549 -429 -8 -2 -163 115 -348 262
-182 146 -338 265 -345 265 -6 0 -163 -120 -348 -268 -185 -147 -469 -373
-632 -502 -163 -129 -292 -239 -288 -243 5 -5 64 -7 132 -5 l124 3 240 191
c366 292 601 479 693 550 l82 65 73 -59 c39 -32 161 -130 270 -216 175 -139
217 -181 180 -181 -6 0 -124 90 -262 200 -139 110 -255 201 -259 202 -6 3 -67
-44 -327 -251 -44 -35 -200 -159 -347 -276 -148 -116 -265 -216 -262 -221 15
-25 -3 -38 738 553 179 142 191 150 212 137 49 -30 463 -365 463 -374 0 -5
-85 -77 -189 -159 -104 -82 -187 -153 -184 -157 3 -5 58 -9 122 -9 95 0 122 3
143 18 62 42 1253 991 1256 1000 2 8 -122 102 -134 102 -4 -1 -119 -90 -254
-198z"/>
<path d="M3050 2258 c-173 -138 -444 -353 -602 -479 -157 -125 -289 -233 -293
-239 -11 -18 3 -24 30 -12 13 6 80 56 147 110 68 54 177 141 243 193 315 250
782 622 803 640 23 19 22 39 -1 39 -7 -1 -154 -114 -327 -252z"/>
<path d="M4140 2487 c0 -3 34 -31 76 -62 l76 -57 336 21 c185 11 396 24 467
28 89 5 121 9 100 14 -16 4 -212 17 -435 29 -223 11 -453 24 -512 27 -60 3
-108 3 -108 0z"/>
<path d="M1890 2435 l25 -27 352 7 c593 12 552 23 -157 41 l-245 7 25 -28z"/>
<path d="M1980 2374 c0 -5 15 -19 33 -31 33 -23 33 -23 272 -13 132 5 276 10
320 11 153 2 24 16 -217 23 -128 3 -272 9 -320 12 -49 4 -88 3 -88 -2z"/>
<path d="M4400 2305 c0 -2 34 -30 77 -61 l76 -56 121 11 c136 13 308 27 437
37 127 9 126 20 -3 27 -62 4 -234 15 -383 27 -286 21 -325 23 -325 15z"/>
<path d="M2115 2265 l30 -26 176 6 c222 9 279 19 159 28 -47 4 -155 9 -240 12
l-155 6 30 -26z"/>
<path d="M2210 2202 c0 -6 12 -20 27 -32 23 -18 36 -20 78 -16 27 3 80 8 117
12 37 3 66 10 63 14 -2 4 -51 10 -107 14 -57 4 -120 10 -140 13 -24 3 -38 2
-38 -5z"/>
<path d="M3290 2100 l0 -70 75 0 76 0 -3 68 -3 67 -72 3 -73 3 0 -71z"/>
<path d="M3500 2100 l0 -70 75 0 75 0 0 70 0 70 -75 0 -75 0 0 -70z"/>
<path d="M4660 2125 c0 -2 34 -29 74 -59 l75 -55 208 25 c114 15 211 30 216
33 4 4 -50 13 -120 20 -71 7 -191 19 -268 27 -149 15 -185 17 -185 9z"/>
<path d="M2320 2114 c0 -11 45 -43 62 -44 9 0 29 5 45 11 27 12 27 12 -32 25
-70 15 -75 16 -75 8z"/>
<path d="M1617 2043 c-4 -3 -7 -21 -7 -40 0 -32 1 -33 40 -33 l40 0 0 40 c0
39 -1 40 -33 40 -19 0 -37 -3 -40 -7z"/>
<path d="M1729 2040 c-7 -57 0 -70 36 -70 34 0 35 1 35 40 0 39 -1 40 -35 40
-19 0 -36 -4 -36 -10z"/>
<path d="M3294 1947 c-3 -8 -4 -41 -2 -73 l3 -59 70 0 70 0 0 70 0 70 -68 3
c-51 2 -69 -1 -73 -11z"/>
<path d="M3512 1952 c-9 -6 -12 -28 -10 -73 l3 -64 70 0 70 0 0 70 0 70 -60 3
c-33 1 -66 -2 -73 -6z"/>
<path d="M4925 1940 c12 -20 133 -100 151 -100 24 0 154 42 154 50 0 5 -280
61 -303 60 -5 0 -5 -4 -2 -10z"/>
<path d="M1612 1893 c3 -36 5 -38 41 -41 l37 -3 0 40 0 41 -41 0 -40 0 3 -37z"/>
<path d="M1729 1915 c-5 -61 -5 -60 34 -63 l37 -3 0 40 c0 40 -1 41 -35 41
-24 0 -35 -5 -36 -15z"/>
<path d="M4500 1214 c-147 -47 -228 -190 -203 -355 21 -131 88 -205 213 -233
96 -22 119 -20 211 15 81 31 109 32 109 4 0 -8 5 -15 10 -15 6 0 10 41 10 104
0 80 4 108 15 120 8 8 15 17 15 20 0 3 -63 6 -140 6 -87 0 -140 -4 -140 -10 0
-5 11 -10 24 -10 40 0 56 -34 56 -122 0 -87 -12 -108 -62 -108 -44 0 -92 53
-113 125 -13 45 -16 86 -13 180 3 107 7 128 31 177 15 31 39 64 54 73 91 60
214 -5 231 -121 4 -24 12 -45 17 -44 14 0 19 200 5 200 -5 0 -10 -6 -10 -13 0
-33 -22 -35 -77 -6 -46 24 -66 29 -127 28 -39 0 -91 -7 -116 -15z"/>
<path d="M691 1198 c-5 -13 -48 -124 -96 -248 -100 -258 -99 -256 -132 -292
l-25 -26 82 -4 c45 -2 84 -1 86 1 2 3 -9 10 -26 17 -49 21 -55 49 -28 130 l23
69 86 3 86 3 27 -73 c34 -96 34 -123 -1 -136 -21 -8 9 -11 121 -11 l149 -1
-21 23 c-12 13 -44 81 -71 152 -28 72 -74 193 -104 270 l-54 140 -46 3 c-41 3
-48 0 -56 -20z m8 -216 c17 -46 31 -90 31 -98 0 -11 -16 -14 -70 -14 -40 0
-70 4 -70 10 0 14 72 192 76 188 1 -2 17 -41 33 -86z"/>
<path d="M1150 1215 c0 -3 11 -10 24 -14 15 -6 25 -20 30 -41 10 -52 7 -456
-4 -485 -5 -14 -20 -30 -32 -35 -13 -5 -21 -9 -18 -10 3 0 112 -1 243 -3 l237
-2 0 113 c0 108 -12 146 -26 85 -26 -108 -132 -201 -203 -178 -21 6 -21 11
-21 271 l0 264 33 20 32 20 -147 0 c-82 0 -148 -2 -148 -5z"/>
<path d="M1758 1183 c16 -21 62 -99 102 -173 l73 -135 -1 -102 c-1 -111 -3
-120 -36 -133 -13 -6 32 -9 124 -9 134 0 143 1 118 15 l-28 15 0 142 0 142 49
95 c27 52 64 112 81 133 18 21 30 40 27 43 -2 3 -42 4 -88 2 -76 -3 -81 -4
-56 -15 36 -17 49 -51 36 -100 -13 -48 -60 -153 -68 -153 -9 0 -121 217 -121
235 0 8 8 15 18 15 9 0 24 5 32 10 10 6 -36 10 -138 10 l-153 0 29 -37z"/>
<path d="M2393 1214 c4 -4 17 -12 29 -18 23 -12 23 -13 26 -260 l2 -248 -31
-29 -31 -29 81 0 c45 0 81 2 81 6 0 3 -14 10 -31 16 -17 6 -34 21 -40 35 -5
13 -9 124 -8 246 l1 222 32 -70 c18 -38 71 -157 117 -262 46 -106 89 -193 96
-193 7 0 13 4 13 9 0 10 134 356 170 441 l19 45 1 -233 0 -233 -32 -14 c-31
-13 -22 -14 110 -17 79 -2 146 0 148 3 2 3 -8 11 -21 17 l-25 12 0 265 0 265
25 10 c14 5 25 12 25 15 0 3 -49 5 -108 5 l-109 0 -68 -177 -69 -176 -31 65
c-16 36 -52 115 -79 176 l-50 112 -125 0 c-68 0 -121 -3 -118 -6z"/>
<path d="M3570 1215 c0 -3 11 -10 25 -15 l25 -10 0 -264 0 -265 -27 -15 c-26
-13 -17 -15 115 -18 78 -2 142 0 142 3 0 3 -11 11 -25 17 -25 11 -25 13 -25
143 0 158 0 158 95 -7 66 -112 74 -144 38 -144 -12 0 -14 -3 -7 -8 7 -4 69 -6
139 -4 l128 3 -25 27 c-29 31 -218 344 -218 361 0 20 129 147 169 167 23 10
41 22 41 27 0 4 -50 7 -112 7 -111 0 -119 -3 -76 -24 16 -8 24 -22 26 -46 2
-29 -5 -44 -40 -86 -56 -65 -115 -114 -139 -114 -18 0 -19 9 -19 120 0 119 0
121 25 130 14 5 25 12 25 15 0 3 -63 5 -140 5 -77 0 -140 -2 -140 -5z"/>
</g>
</svg>
