<?xml version="1.0" standalone="no"?>
<!DOCTYPE svg PUBLIC "-//W3C//DTD SVG 20010904//EN"
 "http://www.w3.org/TR/2001/REC-SVG-20010904/DTD/svg10.dtd">
<svg version="1.0" xmlns="http://www.w3.org/2000/svg"
 width="1080.000000pt" height="643.000000pt" viewBox="0 0 1080.000000 643.000000"
 preserveAspectRatio="xMidYMid meet">

<g transform="translate(0.000000,643.000000) scale(0.100000,-0.100000)"
fill="#000000" stroke="none">
<path d="M2 3228 l-2 -3208 5400 0 c4796 0 5400 2 5400 15 0 13 -602 15 -5395
13 l-5395 -3 -3 3195 -2 3195 -3 -3207z"/>
<path d="M5027 5415 c-139 -19 -228 -64 -328 -164 -102 -103 -162 -195 -154
-238 13 -75 -40 -157 -129 -199 -18 -9 -47 -38 -65 -65 -30 -47 -31 -50 -17
-78 9 -16 44 -48 78 -71 l63 -43 -165 7 c-91 3 -307 9 -480 12 l-315 7 31 -26
32 -27 178 0 c99 0 307 5 464 10 212 8 292 7 313 -1 22 -9 33 -9 52 1 13 7 22
16 20 20 -3 4 4 19 16 34 11 14 24 50 29 80 10 65 28 102 67 137 59 55 68 56
156 10 65 -34 83 -39 92 -29 23 25 155 225 155 235 0 6 -31 37 -69 69 -37 32
-74 67 -80 77 -18 27 -4 54 45 87 82 57 189 87 375 106 55 5 101 26 88 39 -10
10 -177 25 -269 24 -47 -1 -129 -7 -183 -14z"/>
<path d="M5075 4874 c-83 -112 -86 -117 -68 -134 54 -52 1642 -1240 1657
-1240 8 0 21 3 30 6 23 9 146 178 146 201 0 34 -55 76 -544 418 -389 271 -551
391 -714 528 -227 191 -405 337 -413 337 -3 0 -46 -52 -94 -116z"/>
<path d="M5390 4880 c0 -4 36 -32 81 -64 l80 -58 222 11 c122 6 350 16 507 21
462 17 701 28 706 32 2 3 -148 10 -334 16 -555 19 -1143 41 -1204 45 -32 2
-58 0 -58 -3z"/>
<path d="M5650 4702 c0 -4 36 -34 80 -66 80 -57 80 -57 137 -51 32 3 211 12
398 20 508 23 707 33 711 38 3 2 -69 7 -158 11 -90 4 -251 11 -358 16 -107 5
-310 14 -450 20 -140 6 -279 13 -307 16 -29 3 -53 1 -53 -4z"/>
<path d="M4578 4367 c-217 -173 -399 -317 -406 -320 -6 -5 -73 42 -159 111
-375 299 -532 422 -537 422 -7 0 -1221 -963 -1256 -996 l-25 -24 133 0 133 0
297 236 c163 129 391 310 505 400 115 91 214 163 220 161 20 -9 532 -417 535
-428 2 -5 -3 -12 -11 -15 -10 -3 -94 57 -234 168 -120 95 -236 187 -258 205
l-40 31 -190 -152 c-105 -83 -318 -252 -474 -376 -246 -194 -281 -225 -258
-228 22 -3 63 25 213 145 103 81 304 241 448 355 148 118 265 203 271 199 102
-75 475 -376 473 -382 -2 -4 -86 -73 -188 -154 -102 -81 -189 -151 -194 -156
-6 -5 48 -9 126 -9 l135 0 54 42 c57 45 571 454 978 778 l244 194 -29 23 c-16
13 -48 36 -70 53 l-42 30 -394 -313z"/>
<path d="M4788 4268 c-196 -156 -471 -375 -612 -487 -141 -112 -259 -207 -262
-212 -3 -5 6 -9 20 -9 17 0 74 39 178 122 191 152 351 280 733 582 359 285
330 260 312 274 -11 10 -82 -42 -369 -270z"/>
<path d="M5910 4521 c0 -4 35 -33 78 -63 l77 -55 205 13 c113 7 326 20 474 29
149 8 272 18 275 20 2 3 -16 5 -41 5 -25 0 -164 7 -309 15 -145 8 -349 19
-454 25 -104 6 -216 12 -247 15 -32 3 -58 1 -58 -4z"/>
<path d="M3660 4470 l35 -32 150 6 c83 3 269 9 415 13 329 8 285 18 -120 27
-168 4 -352 9 -410 12 l-105 5 35 -31z"/>
<path d="M3768 4386 l32 -28 268 8 c147 4 301 10 342 13 81 7 -5 12 -475 28
l-200 6 33 -27z"/>
<path d="M6160 4346 c0 -2 38 -32 83 -65 53 -38 91 -58 103 -56 10 3 163 16
339 31 176 14 321 27 323 29 2 1 -41 6 -95 9 -54 4 -152 11 -218 16 -66 5
-190 14 -275 20 -85 5 -179 13 -207 16 -29 3 -53 3 -53 0z"/>
<path d="M3860 4323 c0 -5 14 -20 31 -32 32 -24 32 -24 193 -12 89 6 188 12
221 12 58 1 58 2 20 9 -22 4 -112 11 -200 14 -88 4 -184 9 -212 12 -29 3 -53
1 -53 -3z"/>
<path d="M3995 4213 c29 -25 31 -26 130 -19 188 13 195 20 35 34 -80 7 -156
12 -170 12 l-25 -1 30 -26z"/>
<path d="M5060 4135 l0 -75 69 0 c39 0 71 3 73 8 2 4 2 37 0 75 l-4 67 -69 0
-69 0 0 -75z"/>
<path d="M5277 4204 c-4 -4 -7 -38 -7 -76 l0 -68 75 0 76 0 -3 73 -3 72 -65 3
c-36 2 -69 0 -73 -4z"/>
<path d="M6420 4167 c0 -3 34 -30 76 -62 l76 -57 62 6 c33 3 135 16 226 28
192 26 188 28 -94 53 -161 14 -199 18 -303 31 -24 3 -43 3 -43 1z"/>
<path d="M4080 4150 c0 -3 15 -15 33 -28 31 -21 36 -21 73 -8 21 8 37 15 34
16 -23 8 -140 25 -140 20z"/>
<path d="M3382 4043 c3 -36 5 -38 38 -38 33 0 35 2 38 38 l3 37 -41 0 -41 0 3
-37z"/>
<path d="M3492 4043 c3 -36 5 -38 38 -38 33 0 35 2 38 38 l3 37 -41 0 -41 0 3
-37z"/>
<path d="M5060 3920 l0 -71 71 3 71 3 1 65 2 65 -72 3 -73 3 0 -71z"/>
<path d="M5270 3920 l0 -70 75 0 75 0 0 70 0 70 -75 0 -75 0 0 -70z"/>
<path d="M6680 3986 c0 -2 34 -29 77 -61 l76 -58 88 28 c49 16 87 30 86 32 -2
2 -66 14 -143 28 -76 14 -149 28 -161 30 -13 3 -23 4 -23 1z"/>
<path d="M3380 3930 l0 -40 40 0 40 0 0 40 0 40 -40 0 -40 0 0 -40z"/>
<path d="M3497 3963 c-4 -3 -7 -21 -7 -40 0 -32 1 -33 40 -33 l40 0 0 40 c0
39 -1 40 -33 40 -19 0 -37 -3 -40 -7z"/>
<path d="M6303 3260 c-170 -36 -272 -207 -233 -393 27 -130 122 -206 268 -215
69 -4 86 -1 161 28 85 33 100 32 101 -7 0 -7 5 -13 10 -13 6 0 10 42 10 107 0
85 3 110 17 125 16 17 11 18 -133 17 -120 -1 -142 -3 -111 -11 47 -13 57 -35
57 -132 0 -83 -8 -96 -63 -96 -52 0 -90 39 -112 115 -26 87 -18 292 13 356 33
69 63 92 124 97 44 3 59 0 87 -20 49 -33 72 -69 78 -122 4 -30 10 -46 19 -46
11 0 14 22 14 99 0 56 -4 103 -10 106 -5 3 -10 0 -10 -7 0 -7 -4 -20 -9 -27
-8 -13 -18 -11 -60 12 -56 31 -147 42 -218 27z"/>
<path d="M2459 3233 c-41 -112 -184 -474 -196 -498 -8 -16 -27 -40 -41 -52
l-27 -23 93 0 c50 0 92 2 92 5 0 3 -16 11 -35 19 -48 20 -53 50 -24 134 l24
67 85 0 84 0 28 -75 c34 -86 34 -123 1 -128 -13 -2 -23 -8 -23 -13 0 -5 62 -9
145 -9 80 0 145 2 145 4 0 3 -10 16 -22 30 -13 14 -70 147 -127 295 l-104 271
-44 0 c-38 0 -45 -3 -54 -27z m41 -319 c0 -11 -17 -14 -70 -14 -48 0 -70 4
-70 12 0 7 16 54 37 106 l36 95 34 -93 c18 -51 33 -99 33 -106z"/>
<path d="M2920 3250 c0 -3 10 -10 23 -15 31 -14 33 -40 27 -315 -5 -225 -6
-235 -25 -238 -11 -2 -24 -8 -30 -13 -5 -5 91 -9 238 -9 l247 0 0 115 c0 118
-11 146 -29 77 -14 -49 -65 -126 -102 -153 -21 -14 -41 -19 -71 -17 l-43 3 -5
235 c-6 299 -6 299 31 313 16 6 29 14 29 17 0 3 -65 5 -145 5 -80 0 -145 -2
-145 -5z"/>
<path d="M3500 3250 c0 -3 8 -13 19 -21 10 -9 55 -84 100 -167 l82 -152 -3
-112 c-3 -104 -5 -113 -23 -116 -11 -2 -24 -8 -30 -13 -5 -5 50 -9 138 -9 91
0 147 4 147 10 0 6 -9 10 -19 10 -11 0 -22 4 -25 8 -3 4 -6 71 -7 148 l-2 139
51 102 c29 56 65 117 82 136 16 19 30 37 30 41 0 3 -38 6 -85 6 -82 0 -111
-11 -60 -24 29 -7 40 -40 32 -93 -6 -35 -64 -170 -71 -162 -2 2 -31 58 -65
123 -64 124 -65 135 -13 136 12 0 22 3 22 8 0 4 -67 7 -150 7 -82 0 -150 -2
-150 -5z"/>
<path d="M4160 3248 c0 -5 6 -8 14 -8 8 0 22 -7 30 -16 14 -13 16 -50 16 -249
0 -242 -5 -279 -42 -290 -41 -14 -13 -25 62 -25 47 0 80 4 80 10 0 6 -7 10
-15 10 -9 0 -27 11 -40 25 l-25 24 0 233 1 233 74 -170 c125 -283 160 -358
168 -359 5 0 49 103 99 229 49 127 93 239 98 250 5 12 9 -74 9 -210 1 -240 -1
-255 -41 -255 -10 0 -18 -4 -18 -10 0 -6 55 -10 145 -10 83 0 145 4 145 9 0 5
-10 11 -22 13 l-23 3 0 270 0 270 23 10 c33 14 27 28 -9 21 -17 -3 -67 -6
-110 -6 -78 0 -80 -1 -90 -27 -59 -160 -123 -313 -128 -308 -3 3 -40 81 -81
173 l-76 167 -122 0 c-67 0 -122 -3 -122 -7z"/>
<path d="M5334 3251 c-2 -3 9 -10 26 -17 l30 -13 0 -255 c0 -140 -3 -261 -6
-270 -3 -9 -14 -16 -24 -16 -11 0 -22 -4 -25 -10 -4 -6 45 -10 139 -10 84 0
146 4 146 9 0 5 -10 11 -22 13 -30 4 -36 31 -37 161 -1 83 2 107 12 107 14 0
157 -233 157 -256 0 -8 -9 -14 -20 -14 -11 0 -20 -4 -20 -10 0 -6 52 -10 135
-10 74 0 135 3 135 6 0 3 -9 13 -20 22 -22 19 -220 347 -220 365 0 24 120 145
165 167 25 12 45 25 45 28 0 4 -50 8 -110 10 -61 1 -110 -1 -110 -5 0 -4 14
-16 30 -25 23 -13 30 -24 30 -47 0 -53 -140 -201 -192 -201 -16 0 -18 9 -18
88 0 127 8 161 36 168 13 3 24 9 24 13 0 7 -279 9 -286 2z"/>
</g>
</svg>
