<?xml version="1.0" standalone="no"?>
<!DOCTYPE svg PUBLIC "-//W3C//DTD SVG 20010904//EN"
 "http://www.w3.org/TR/2001/REC-SVG-20010904/DTD/svg10.dtd">
<svg version="1.0" xmlns="http://www.w3.org/2000/svg"
 width="900.000000pt" height="620.000000pt" viewBox="0 0 900.000000 620.000000"
 preserveAspectRatio="xMidYMid meet">

<g transform="translate(0.000000,620.000000) scale(0.100000,-0.100000)"
fill="#000000" stroke="none">
<path d="M4719 5336 c-2 -2 -52 -6 -110 -10 -218 -12 -580 -70 -819 -131 -8
-2 -35 -8 -60 -14 -25 -5 -104 -30 -175 -54 -72 -24 -136 -42 -142 -40 -6 2
-21 -5 -32 -16 -11 -11 -32 -23 -47 -27 -38 -10 -218 -109 -302 -167 -136 -93
-228 -223 -267 -373 -15 -58 -13 -142 3 -154 10 -7 52 -126 57 -164 3 -16 0
-36 -5 -45 -8 -14 -10 -14 -11 -1 -1 8 -1 22 0 30 1 10 -3 8 -11 -5 -15 -26
-13 -56 23 -305 48 -338 45 -327 100 -386 27 -28 46 -53 43 -56 -8 -8 148
-109 241 -155 267 -134 628 -211 1060 -228 83 -3 161 -7 175 -9 43 -7 226 -25
420 -41 522 -42 966 -81 1040 -91 25 -4 56 -12 70 -19 14 -7 43 -15 65 -19 57
-10 205 -57 205 -66 0 -12 -152 -116 -233 -159 -80 -42 -163 -80 -372 -171
-66 -28 -129 -55 -140 -60 -11 -5 -45 -19 -75 -31 -30 -12 -61 -27 -69 -33 -7
-5 -18 -11 -25 -12 -6 -2 -51 -16 -99 -33 -49 -17 -101 -32 -115 -32 -19 -1
-21 -3 -9 -6 16 -4 160 27 204 44 10 4 13 -11 13 -65 0 -75 8 -112 20 -92 4 6
5 46 3 89 -4 76 -3 79 21 85 13 3 31 9 40 12 13 5 16 -2 16 -44 0 -61 10 -112
21 -112 5 0 6 36 4 80 -4 71 -3 81 15 90 40 21 50 13 49 -37 -2 -72 0 -93 11
-93 5 0 9 33 8 76 l-2 76 65 23 66 23 7 -312 c6 -286 13 -430 21 -481 2 -11 4
-38 4 -61 1 -22 8 -49 17 -60 17 -21 16 -3 -6 411 -5 94 -12 247 -15 340 l-7
170 33 12 c18 7 35 11 37 8 2 -2 5 -38 6 -79 1 -47 6 -80 15 -88 10 -11 12 -6
11 27 -1 22 -2 67 -1 101 1 55 3 62 26 72 14 7 28 12 30 12 3 0 5 -31 5 -70 0
-40 4 -70 10 -70 10 0 12 18 12 106 0 45 4 53 24 63 23 10 24 9 25 -34 1 -25
3 -49 4 -55 1 -5 3 -15 4 -21 0 -5 6 -7 11 -4 6 4 8 32 4 74 -6 64 -5 68 19
84 31 20 37 9 28 -54 -8 -51 0 -96 12 -66 4 10 10 53 13 97 10 121 29 103 29
-28 0 -130 13 -242 27 -242 11 0 6 177 -8 310 -7 60 -10 55 59 88 4 2 7 -29 7
-70 0 -40 5 -80 10 -88 13 -19 14 -12 14 94 1 62 5 90 14 93 8 3 12 -8 12 -35
0 -45 8 -72 21 -72 5 0 9 33 9 73 0 62 3 74 21 85 27 17 33 10 31 -36 -1 -20
2 -44 8 -52 7 -11 10 6 10 56 0 65 2 72 29 98 l30 29 4 -54 3 -54 2 61 c2 47
8 68 27 94 l25 34 1 -30 c1 -16 1 -33 0 -38 -1 -5 3 -79 8 -165 6 -86 13 -244
16 -351 3 -107 8 -227 11 -266 l5 -72 -60 -70 c-167 -194 -449 -374 -761 -487
-58 -21 -109 -42 -115 -46 -29 -21 -632 -162 -788 -184 -391 -55 -808 -87
-1147 -89 -249 -1 -649 11 -681 20 -20 6 -28 51 -30 159 -1 55 -3 72 -9 55 -4
-14 -8 -19 -9 -12 -1 6 -6 12 -11 12 -7 0 -10 -38 -9 -105 1 -108 8 -127 45
-124 11 1 33 1 49 0 30 -3 30 -3 5 -11 -24 -8 251 -14 655 -15 153 0 439 15
565 29 19 3 71 7 115 11 219 17 652 74 840 111 248 48 779 175 794 190 8 8
-13 4 -119 -21 -280 -66 -364 -81 -225 -40 114 34 137 44 130 56 -4 6 -1 9 6
8 8 -2 35 6 61 18 25 12 57 24 70 28 53 17 249 126 331 184 114 81 267 228
328 314 26 38 62 102 79 144 55 132 64 186 68 438 3 199 -1 311 -23 686 -6 91
-42 165 -113 230 -30 28 -61 48 -68 45 -8 -3 -14 -2 -14 3 0 5 -11 12 -25 15
-14 4 -25 12 -25 20 0 17 -110 66 -235 104 -108 33 -156 44 -310 69 -55 8
-104 19 -108 23 -5 4 13 11 40 15 144 21 383 141 383 191 0 9 5 12 13 8 6 -4
9 -4 5 1 -11 12 11 35 26 29 8 -3 15 6 19 24 3 15 25 48 49 73 l43 44 3 345
c2 190 5 374 7 409 2 42 -1 74 -10 91 -35 67 -199 174 -315 204 -36 10 -105
31 -155 47 -49 16 -150 39 -223 50 -138 21 -193 21 -108 -1 38 -10 45 -15 31
-20 -17 -6 -16 -7 6 -13 13 -4 33 -6 44 -6 l20 0 -20 9 c-16 7 -16 9 -4 9 14
1 116 -28 212 -59 15 -5 25 -5 22 0 -3 5 -29 16 -58 26 -28 9 -47 19 -40 21
10 4 191 -53 201 -62 2 -2 5 -44 8 -93 2 -64 -1 -101 -11 -128 l-15 -39 5 38
c9 55 -9 100 -48 121 -17 9 -50 28 -72 41 -44 26 -206 75 -330 99 -121 24
-274 33 -540 31 -336 -3 -191 15 215 26 44 1 50 3 30 9 -16 6 13 7 75 5 81 -3
89 -2 45 5 -30 4 -77 9 -105 11 l-50 2 55 7 c32 4 -44 7 -181 8 -130 1 -238 0
-240 -2z m358 -12 c-3 -3 -12 -4 -19 -1 -8 3 -5 6 6 6 11 1 17 -2 13 -5z
m-337 -24 c-36 -4 -94 -10 -130 -13 -121 -11 -539 -90 -640 -121 -69 -21 -90
-25 -90 -15 0 5 -4 9 -10 9 -5 0 -10 -6 -10 -13 0 -12 -67 -44 -74 -35 -2 1
-6 18 -9 36 -6 29 -4 32 18 32 20 0 25 -5 25 -27 0 -32 17 -20 22 17 3 22 11
26 88 42 119 24 467 77 575 87 50 5 137 8 195 8 97 0 100 0 40 -7z m347 4 c-3
-3 -12 -4 -19 -1 -8 3 -5 6 6 6 11 1 17 -2 13 -5z m-474 -51 c-13 -2 -33 -2
-45 0 -13 2 -3 4 22 4 25 0 35 -2 23 -4z m-95 -10 c-10 -2 -26 -2 -35 0 -10 3
-2 5 17 5 19 0 27 -2 18 -5z m862 -21 c118 -21 208 -48 125 -37 -22 3 -91 14
-154 25 -62 11 -136 19 -165 19 -46 -2 -44 -2 24 -10 168 -18 144 -24 -92 -23
l-243 1 225 -7 c142 -4 236 -11 255 -19 45 -19 65 -41 65 -74 0 -40 -44 -78
-127 -111 -56 -22 -61 -25 -29 -20 46 7 128 46 156 74 32 32 26 83 -11 113
l-31 24 56 -8 c31 -5 80 -20 110 -33 30 -13 56 -22 59 -20 2 3 21 -3 41 -12
28 -14 36 -23 36 -45 0 -23 -10 -32 -57 -59 -56 -32 -96 -45 -226 -76 -43 -10
-64 -20 -56 -25 8 -5 1 -9 -22 -13 -19 -3 -61 -10 -93 -16 -90 -15 -551 -12
-676 4 -125 17 -253 56 -286 87 -13 12 -24 18 -24 12 0 -38 168 -98 345 -122
122 -17 866 -13 930 5 28 8 70 17 95 20 25 3 57 9 71 14 26 8 26 8 21 -41 -3
-32 -1 -49 7 -49 7 0 11 19 11 50 0 38 4 52 19 60 11 5 22 10 24 10 3 0 3 -36
0 -80 -4 -51 -2 -80 4 -80 6 0 13 35 17 78 3 42 7 83 8 89 1 7 10 21 21 30 20
17 20 17 13 -1 -4 -12 -2 -23 6 -27 10 -6 13 -40 12 -126 -2 -152 -9 -173 -60
-189 -21 -6 -33 -12 -26 -13 8 -1 12 -19 12 -55 0 -30 3 -61 6 -70 11 -29 26
-16 24 22 -4 92 -1 112 20 112 18 0 20 -7 20 -64 0 -93 19 -93 22 0 l3 76 48
19 47 19 0 -39 c0 -53 11 -101 22 -101 6 0 9 30 6 75 -3 58 0 76 11 80 8 3 15
4 16 3 7 -8 23 -207 18 -230 -3 -14 0 -34 6 -45 8 -13 11 20 10 135 -1 138 1
155 17 167 27 19 36 9 33 -39 -3 -66 0 -88 12 -81 6 4 9 36 8 77 -2 53 2 73
14 85 15 16 16 13 10 -34 -3 -28 -3 -63 1 -78 12 -48 25 -15 24 65 0 73 10
110 31 110 3 0 5 -31 3 -69 -2 -39 1 -78 7 -88 11 -19 14 15 11 123 -1 29 3
55 9 59 8 4 11 -95 11 -333 0 -337 0 -340 -22 -368 -115 -146 -314 -300 -415
-320 l-31 -6 -7 88 c-3 49 -7 98 -8 109 -1 22 31 65 49 65 19 0 24 -131 6
-152 -14 -17 -13 -18 13 -18 23 0 26 -2 15 -15 -10 -12 -9 -15 8 -15 20 0 92
71 92 91 0 6 6 9 13 6 47 -18 56 -17 86 8 54 46 61 134 12 150 -16 5 -21 15
-21 44 0 48 -19 65 -63 57 -45 -8 -77 -40 -77 -76 0 -27 22 -60 40 -60 5 0 8
-22 7 -49 -2 -46 -5 -51 -36 -66 -18 -9 -35 -14 -37 -12 -2 2 -6 53 -9 113 -3
60 -9 110 -13 112 -15 5 -53 -45 -71 -94 l-19 -48 -6 75 c-4 40 -9 94 -12 119
-11 117 -13 334 -3 347 9 10 6 13 -15 13 -19 0 -25 -4 -20 -12 5 -7 7 -51 5
-98 -1 -47 2 -141 8 -210 6 -69 13 -163 16 -210 6 -92 23 -233 31 -254 13 -35
-193 -50 -413 -31 l-73 7 0 51 c0 29 -3 82 -6 119 -6 56 -11 70 -31 83 -28 19
-48 14 -85 -20 -50 -46 -29 -125 33 -125 26 0 27 -2 31 -55 l3 -55 -90 0 c-49
0 -171 7 -270 15 -99 8 -224 17 -277 21 l-97 6 6 101 c4 81 2 106 -10 122 -13
16 -19 17 -40 8 -48 -22 -109 -188 -77 -208 23 -14 9 -27 -22 -21 -18 4 -41 8
-50 9 -26 2 -22 28 13 100 37 74 34 109 -9 131 -23 12 -32 12 -59 1 -31 -13
-60 -51 -48 -63 3 -4 9 -1 13 5 4 6 20 15 35 18 25 7 27 5 27 -24 0 -38 -29
-98 -62 -127 -23 -21 -23 -21 -193 -5 -93 9 -180 22 -192 29 -12 6 -28 9 -36
6 -8 -3 -46 10 -83 29 -69 35 -95 65 -110 127 -7 26 -17 151 -28 330 -4 58
-13 164 -21 235 -8 72 -15 139 -14 150 0 17 2 16 11 -5 6 -14 10 -36 9 -50 -1
-14 2 -37 8 -50 9 -24 10 -23 11 10 l1 35 22 -27 c13 -16 28 -28 34 -28 6 0
13 -31 17 -70 4 -38 12 -72 17 -76 7 -4 8 12 4 49 -8 64 -1 85 22 65 8 -6 22
-13 30 -14 40 -6 43 -13 43 -86 0 -43 4 -68 9 -60 4 7 7 36 6 64 0 31 4 52 11
55 6 2 34 -2 60 -10 49 -14 49 -14 50 -58 1 -24 2 -54 3 -67 1 -13 6 -20 11
-17 6 3 10 33 10 67 0 58 1 60 23 54 22 -7 185 -36 200 -36 4 0 7 -24 7 -54 0
-30 5 -58 10 -61 11 -7 12 1 10 67 l-1 48 33 -7 c18 -3 35 -8 38 -10 3 -3 3
-33 2 -68 -2 -37 1 -66 7 -70 8 -4 11 17 11 64 0 69 1 71 25 71 24 0 25 -3 25
-60 0 -33 4 -60 9 -60 5 0 8 20 6 44 -4 51 13 83 39 73 13 -5 16 -21 16 -76 0
-38 4 -72 9 -76 13 -8 24 55 18 104 -5 44 -5 45 56 35 l37 -7 0 -103 c0 -104
13 -146 24 -77 3 21 5 69 5 106 -1 37 1 70 3 72 2 3 34 2 71 -2 l67 -6 0 -63
c0 -36 4 -64 10 -64 6 0 10 29 10 66 l0 65 143 -5 c78 -2 143 -5 144 -5 1 -1
3 -31 5 -68 2 -40 8 -68 15 -70 9 -3 10 14 6 65 l-6 69 33 6 c44 9 48 4 43
-47 -6 -51 2 -96 18 -96 7 0 9 23 4 69 -4 38 -3 71 2 74 5 3 35 7 68 8 l60 3
5 -56 c5 -54 14 -77 25 -66 3 3 1 33 -3 66 -6 43 -5 62 2 62 6 0 28 3 48 6
l37 6 3 -96 c4 -130 22 -130 26 0 2 96 4 102 25 108 43 11 46 9 35 -31 -15
-56 -15 -105 0 -111 9 -3 13 3 11 14 -4 25 10 65 29 87 14 15 13 17 -1 17 -10
0 -17 8 -17 19 0 15 11 22 48 30 26 6 57 14 70 17 23 7 23 5 22 -62 -2 -92 -2
-96 10 -89 6 3 10 42 10 85 0 66 3 79 18 83 11 3 9 5 -8 6 -14 0 -41 -4 -60
-9 -43 -13 -171 -40 -186 -40 -13 0 -20 43 -30 173 -5 76 -4 87 10 87 9 0 16
-5 16 -12 0 -6 6 -3 14 7 12 17 16 18 32 5 10 -8 15 -10 11 -4 -7 13 37 29 53
19 4 -3 6 -22 3 -44 -3 -23 -1 -41 6 -45 7 -5 11 2 12 16 1 24 9 81 12 84 1 1
13 4 27 6 23 3 25 0 26 -42 1 -74 7 -79 13 -11 6 60 8 65 34 72 26 7 27 6 27
-36 0 -24 5 -47 10 -50 6 -3 10 0 10 8 0 8 3 36 7 62 6 45 5 48 -13 41 -25
-10 -278 -52 -369 -61 -238 -24 -543 -26 -780 -4 -167 15 -404 104 -414 154
-2 12 10 30 30 48 l34 30 -35 -25 c-26 -19 -35 -33 -35 -54 0 -26 8 -33 95
-76 66 -33 87 -47 70 -48 -33 0 -163 36 -202 56 -17 9 -27 11 -24 6 3 -6 27
-18 52 -28 l45 -17 -2 -69 c-1 -37 1 -71 4 -75 4 -3 7 26 7 65 0 40 3 72 6 72
3 0 40 -9 82 -19 43 -11 130 -25 195 -32 l117 -13 0 -134 0 -134 -57 6 c-283
29 -357 38 -416 48 -37 6 -70 15 -72 19 -7 10 -12 73 -20 234 -4 77 -12 145
-17 150 -10 10 -9 -41 8 -291 l7 -92 -49 9 c-52 10 -106 25 -139 39 -11 5 -36
13 -55 19 -90 28 -130 77 -132 161 -1 27 -5 47 -10 44 -9 -6 -10 12 -2 44 4
12 12 22 20 22 7 0 16 5 20 12 5 7 2 8 -7 3 -8 -5 -11 -4 -6 1 5 5 16 9 25 9
10 0 16 7 14 16 -5 33 88 93 224 144 63 24 127 36 79 15 -11 -5 -63 -27 -114
-50 -52 -22 -109 -52 -127 -65 -18 -14 -37 -25 -43 -25 -6 0 -11 -4 -11 -10 0
-14 4 -13 57 18 60 35 179 92 216 103 26 7 27 6 27 -32 0 -21 4 -39 10 -39 5
0 9 8 8 18 -5 62 0 70 55 86 125 35 383 86 517 100 210 23 202 23 480 21 208
-2 276 -6 370 -23z m-1197 -39 c-7 -2 -19 -2 -25 0 -7 3 -2 5 12 5 14 0 19 -2
13 -5z m1745 -2 c10 -6 12 -23 7 -61 -6 -57 1 -110 16 -110 5 0 9 36 9 80 0
64 3 80 15 80 17 0 16 5 18 -109 1 -49 6 -86 13 -88 7 -2 9 26 6 88 -4 85 -3
91 14 87 17 -3 19 -14 22 -96 3 -114 22 -123 22 -11 0 90 -2 89 69 44 48 -30
48 -28 24 -184 l-17 -114 -40 -29 c-70 -51 -229 -123 -247 -112 -4 2 -3 19 2
37 5 17 9 72 9 122 0 97 12 140 24 85 3 -18 6 -65 6 -104 0 -49 3 -66 10 -56
5 8 8 29 5 45 -9 62 -16 415 -8 415 4 0 14 -4 21 -9z m-1801 -7 c-3 -3 -12 -4
-19 -1 -8 3 -5 6 6 6 11 1 17 -2 13 -5z m1478 -4 c18 -8 18 -9 -5 -9 -14 0
-32 4 -40 9 -12 8 -12 10 5 9 11 0 29 -4 40 -9z m-1847 -41 c3 -30 -1 -37 -24
-48 -15 -6 -27 -10 -28 -9 -1 2 -7 20 -13 41 -11 35 -10 39 10 47 38 15 52 7
55 -31z m282 21 c-57 -20 -89 -25 -76 -13 9 10 84 30 111 31 11 0 -5 -8 -35
-18z m1639 -11 c33 -12 61 -52 61 -89 0 -104 -200 -200 -415 -200 -57 0 -51
15 9 23 53 8 201 63 304 114 63 31 72 39 72 63 0 31 -33 66 -72 75 -16 4 -28
11 -28 16 0 12 30 11 69 -2z m-2008 -16 c0 -10 3 -30 5 -45 3 -19 -2 -33 -18
-48 l-23 -21 -9 50 c-5 27 -6 57 -3 65 9 22 47 21 48 -1z m2105 -28 c38 -36
44 -93 12 -122 -25 -22 -108 -67 -114 -61 -2 2 14 21 35 41 47 45 58 90 36
143 -14 34 -14 36 2 23 10 -8 23 -19 29 -24z m-2176 -44 c0 -49 -4 -72 -15
-81 -13 -11 -15 -8 -16 21 0 19 -2 52 -4 73 -5 44 0 56 21 56 11 0 14 -16 14
-69z m-49 -36 c3 -67 0 -87 -19 -122 -26 -49 -30 -113 -18 -253 12 -139 14
-174 21 -285 3 -55 8 -119 11 -142 3 -27 1 -43 -5 -43 -6 0 -11 5 -11 12 0 6
-3 9 -6 5 -3 -3 1 -27 9 -52 9 -25 14 -52 11 -60 -14 -34 42 -98 121 -138 59
-31 52 -32 -88 -12 -207 29 -387 76 -387 101 0 8 -4 14 -10 14 -5 0 -10 -4
-10 -9 0 -5 -9 -7 -20 -4 -29 8 -25 25 20 82 37 46 140 121 297 215 75 45 32
43 -52 -3 -51 -27 -77 -37 -80 -28 -9 25 -25 136 -35 227 -5 52 -14 142 -20
200 -19 172 -21 273 -7 282 25 16 35 7 41 -42 10 -78 29 -75 21 4 -7 65 -7 66
20 76 14 5 28 10 31 10 2 0 4 -24 4 -52 0 -29 3 -70 6 -90 12 -71 24 -38 24
63 0 86 2 100 15 95 8 -3 15 -2 15 3 0 5 9 11 20 14 22 6 25 -7 21 -89 -2 -23
2 -45 7 -48 13 -8 20 35 19 101 -2 49 8 70 25 54 3 -3 8 -42 9 -86z m2691 -25
c2 -8 2 -39 0 -68 -3 -44 -8 -55 -35 -74 l-30 -22 7 80 c10 115 14 126 36 111
10 -6 20 -18 22 -27z m-3000 -60 c-6 -41 -12 -38 -12 6 0 19 4 33 8 30 5 -3 7
-19 4 -36z m-28 -59 c6 -68 15 -93 17 -45 1 28 1 28 9 -6 4 -19 11 -62 14 -95
3 -33 10 -103 16 -155 5 -52 13 -124 16 -160 l7 -65 -31 30 c-19 19 -27 34
-21 39 13 14 11 50 -3 64 -20 20 -45 14 -84 -20 -23 -20 -46 -32 -59 -30 -25
3 -51 -39 -57 -93 -3 -27 0 -30 23 -28 25 1 27 -1 33 -63 4 -35 4 -75 0 -89
-3 -14 -3 -25 1 -25 15 0 45 21 45 32 0 18 32 48 51 48 23 0 86 54 94 81 9 27
25 24 25 -5 0 -17 -15 -35 -53 -64 -60 -45 -137 -122 -137 -137 -1 -33 -17
-36 -68 -12 -97 47 -121 66 -131 105 -13 47 -51 280 -51 309 0 12 -5 25 -12
29 -8 5 -9 -5 -4 -37 4 -24 13 -91 21 -149 8 -58 17 -118 21 -135 7 -29 7 -29
-17 -14 -13 9 -35 38 -49 65 -21 40 -25 61 -24 130 1 72 5 89 37 155 34 71 36
72 37 39 0 -19 7 -48 16 -65 13 -29 14 -26 10 45 -5 91 8 143 16 62 3 -29 11
-59 18 -65 10 -10 11 -6 6 18 -15 74 -10 120 17 149 14 15 31 25 37 21 6 -3 8
-10 5 -15 -7 -11 25 -183 36 -195 9 -9 7 11 -11 110 -19 101 -19 133 -1 149
10 9 19 16 22 16 2 0 5 -23 7 -52 5 -92 23 -92 20 1 -2 60 1 86 10 89 8 2 12
-10 12 -40 0 -50 9 -88 20 -88 5 0 6 35 3 79 -4 51 -2 81 5 85 7 4 13 -8 17
-31 13 -79 17 -93 26 -93 9 0 5 89 -7 134 -4 18 0 28 17 40 13 8 24 15 25 13
1 -1 4 -31 8 -66z m-116 12 c-64 -52 -170 -159 -201 -203 -17 -25 -34 -47 -37
-50 -4 -3 -15 -20 -24 -38 -10 -19 -20 -32 -23 -29 -10 11 69 146 115 193 44
47 70 69 151 129 46 33 62 32 19 -2z m139 -15 c-3 -8 -6 -5 -6 6 -1 11 2 17 5
13 3 -3 4 -12 1 -19z m2074 -90 c0 -7 3 -51 6 -98 10 -165 11 -152 -22 -163
-32 -11 -682 -20 -727 -10 l-28 5 0 129 0 129 79 0 c111 0 111 0 111 -75 0
-36 5 -67 11 -71 8 -5 10 14 7 65 l-4 71 114 0 114 0 -2 -37 c-4 -73 4 -97 9
-33 l6 65 38 3 37 3 0 -50 c0 -27 5 -53 11 -56 7 -5 10 12 8 51 l-3 59 42 3
42 3 0 -48 c0 -26 5 -55 10 -63 7 -11 10 3 10 46 0 55 2 62 23 68 42 11 47 7
47 -34 0 -22 5 -40 10 -40 6 0 10 18 10 39 0 35 8 48 33 50 4 1 7 -5 8 -11z
m-2091 -322 c0 -12 -31 -76 -40 -81 -22 -14 -9 -26 20 -20 17 4 30 3 31 -2 0
-4 2 -18 3 -31 3 -29 -19 -61 -52 -73 -20 -8 -23 -12 -13 -18 11 -7 9 -11 -7
-20 -24 -13 -28 -2 -38 115 -6 76 -5 82 13 88 11 4 28 15 38 26 16 17 45 28
45 16z m-318 -314 c20 -21 30 -47 39 -98 6 -38 15 -73 20 -79 9 -9 8 8 -6 98
l-8 49 59 -33 c33 -18 64 -38 70 -45 6 -8 13 -11 16 -8 3 3 22 -2 42 -10 29
-12 36 -21 37 -43 0 -15 4 -37 9 -48 7 -15 9 -10 9 23 1 44 2 45 39 36 20 -6
22 -12 22 -70 0 -35 3 -64 8 -64 4 0 7 26 7 58 l0 57 30 -3 c17 -2 38 -10 47
-19 9 -8 21 -12 26 -9 12 7 22 -17 22 -54 0 -40 11 -90 20 -90 5 0 7 30 7 68
-2 65 -1 67 23 69 23 2 23 2 5 -6 -16 -8 -17 -10 -3 -10 17 -1 17 -5 33 -155
5 -41 10 -55 16 -45 9 13 4 123 -7 162 -7 22 18 32 45 17 16 -8 21 -20 21 -53
0 -55 9 -84 27 -91 10 -4 13 -1 9 12 -2 9 -8 41 -11 70 l-7 53 53 -7 c30 -4
56 -8 58 -10 2 -2 6 -29 9 -59 6 -76 24 -83 21 -9 -3 57 -2 59 24 62 27 3 27
3 27 -60 0 -35 5 -70 10 -78 11 -17 13 1 10 77 -1 23 1 46 4 51 3 5 33 5 68
-1 35 -5 72 -10 83 -11 17 -2 21 -12 25 -69 3 -36 11 -72 19 -79 11 -11 12 -8
7 17 -3 17 -6 53 -8 80 l-2 50 69 -4 c39 -2 71 -4 71 -5 1 0 -3 -34 -8 -74
-11 -83 0 -137 13 -62 4 25 8 64 8 87 1 49 7 54 52 47 l35 -6 -3 -76 c-4 -87
4 -152 18 -152 5 0 9 52 9 115 l0 115 49 0 c27 0 63 -3 80 -6 l31 -6 0 -74 c0
-48 4 -74 11 -74 7 0 9 12 5 34 -4 19 -3 53 0 77 l7 42 145 -6 c79 -3 147 -9
150 -12 4 -3 5 -37 4 -76 -2 -46 0 -69 8 -69 7 0 11 19 10 53 -3 90 -1 97 19
97 16 0 19 -8 20 -60 0 -34 5 -69 11 -78 9 -13 10 3 6 61 -5 71 -4 78 12 75
14 -3 18 -18 22 -85 7 -108 20 -118 20 -15 0 44 4 83 10 87 5 3 21 3 35 -1 24
-6 25 -10 25 -75 0 -39 4 -69 10 -69 6 0 10 30 10 70 l0 70 40 0 40 0 -6 -88
c-7 -96 1 -182 17 -182 7 0 9 48 7 135 l-3 135 90 0 c136 0 135 0 128 -75 -3
-37 -1 -70 6 -81 10 -17 11 -17 12 6 1 14 1 52 0 84 l-2 59 123 -6 c68 -4 140
-10 161 -13 l37 -7 0 -86 c0 -59 3 -81 10 -71 5 8 10 45 10 81 0 36 2 68 5 71
3 2 35 1 72 -4 119 -15 108 -1 108 -132 1 -77 5 -120 13 -128 9 -9 12 16 12
115 0 70 3 127 8 126 39 -3 46 -16 48 -93 1 -42 5 -80 8 -83 14 -14 19 11 18
83 l-1 76 25 -6 c15 -4 40 -10 56 -13 l30 -6 -6 -60 c-6 -65 0 -107 16 -107 5
0 7 33 3 80 -4 63 -2 80 8 80 8 0 54 -13 103 -30 49 -16 90 -30 92 -30 1 0 2
-17 2 -37 0 -65 12 -143 22 -143 6 0 8 32 7 74 -4 80 2 96 26 76 12 -10 15
-31 13 -91 -2 -51 2 -83 10 -91 9 -9 12 6 12 70 0 45 3 82 7 82 3 0 15 -7 25
-17 14 -13 18 -31 18 -90 0 -40 4 -73 9 -73 15 0 23 36 16 80 -5 31 -3 40 9
40 8 0 16 5 18 11 2 5 15 -2 28 -18 17 -19 18 -22 4 -10 -11 9 -24 17 -28 17
-7 0 32 -61 46 -70 16 -12 39 -83 44 -139 5 -43 2 -74 -11 -115 -17 -55 -45
-94 -32 -46 11 44 -11 5 -32 -55 -22 -62 -85 -163 -108 -172 -7 -3 -13 -11
-13 -17 0 -20 -54 -66 -68 -57 -8 5 -16 56 -22 147 -11 155 -28 368 -37 459
-9 99 -11 119 -12 143 -1 12 -6 22 -12 22 -8 0 -9 -20 -5 -62 3 -35 8 -97 11
-138 26 -413 31 -471 41 -524 5 -25 4 -28 -12 -22 -34 13 -218 54 -294 65 -87
13 -282 32 -640 61 -140 12 -320 26 -400 33 l-145 12 -6 45 c-4 25 -10 119
-14 210 -3 90 -8 167 -10 170 -2 3 -6 30 -9 60 -6 62 -15 128 -26 210 l-7 55
-2 -70 c0 -38 3 -117 9 -175 5 -58 14 -177 20 -265 5 -88 13 -178 16 -201 l6
-40 -64 3 c-34 3 -106 10 -158 17 -52 8 -133 14 -180 15 -107 1 -312 21 -323
30 -12 11 -34 171 -47 331 -6 80 -14 165 -17 190 -3 25 -5 57 -5 73 0 15 -4
27 -10 27 -6 0 -8 -24 -4 -67 3 -38 9 -111 11 -163 8 -128 24 -296 34 -347 5
-28 5 -43 -2 -43 -25 0 -355 73 -434 96 -230 67 -442 183 -570 314 -38 39 -43
50 -57 129 -21 122 -29 191 -17 165 5 -12 13 -42 16 -68 4 -26 10 -45 12 -42
11 11 -20 146 -34 146 -7 0 -13 5 -13 11 0 5 5 7 10 4 6 -4 10 7 9 27 -1 32
-16 93 -18 73 -1 -5 -5 -3 -11 5 -6 9 -5 17 1 21 7 4 11 53 12 117 2 122 4
124 59 64z m3088 36 c-1 -17 -35 -58 -49 -58 -14 0 -14 25 -1 51 12 21 50 26
50 7z m50 -73 c15 -18 7 -82 -13 -103 -12 -11 -19 -11 -36 -3 -28 16 -28 67 1
98 25 27 31 28 48 8z m-1580 -70 c0 -8 -7 -15 -16 -15 -14 0 -14 3 -4 15 7 8
14 15 16 15 2 0 4 -7 4 -15z m750 -34 c0 -36 -16 -81 -29 -81 -20 0 -42 32
-35 54 17 55 64 75 64 27z m-750 -55 c0 -29 -3 -68 -6 -85 -6 -26 -11 -31 -37
-31 -29 0 -29 1 -23 40 7 44 45 130 58 130 4 0 8 -24 8 -54z m-760 -52 c155
-17 227 -36 110 -27 -92 6 -311 40 -319 49 -3 4 12 4 34 0 22 -3 101 -13 175
-22z m238 -31 c-10 -2 -26 -2 -35 0 -10 3 -2 5 17 5 19 0 27 -2 18 -5z m145
-10 c3 -5 -16 -7 -41 -5 -73 5 -82 10 -20 11 31 0 59 -2 61 -6z m90 -10 c-13
-2 -35 -2 -50 0 -16 2 -5 4 22 4 28 0 40 -2 28 -4z m2355 -459 c-4 -3 -12 5
-18 18 -12 22 -12 22 6 6 10 -10 15 -20 12 -24z m13 -282 c-6 -2 -11 -15 -11
-28 0 -14 -4 -22 -10 -19 -6 4 -10 -24 -9 -77 0 -56 3 -76 9 -63 5 11 9 30 9
42 1 23 27 23 28 0 1 -7 2 -101 3 -209 1 -174 8 -229 22 -186 3 7 8 -36 11
-95 6 -89 4 -112 -9 -132 -8 -13 -22 -51 -30 -85 -15 -64 -77 -202 -99 -220
-11 -9 -13 31 -14 212 0 123 -5 284 -10 358 -13 182 -16 330 -7 358 16 46 26
20 22 -58 -5 -85 1 -123 15 -114 5 3 9 57 9 120 0 112 1 117 38 193 37 77 37
78 40 42 2 -19 -1 -37 -7 -39z m-581 -526 c0 -18 -265 -144 -277 -132 -9 8
-10 8 101 55 54 23 115 50 135 61 40 21 41 22 41 16z m-297 -147 c-11 -11
-263 -92 -269 -86 -3 2 35 18 83 35 48 17 108 39 133 50 43 19 71 19 53 1z
m-23 -1009 c-8 -5 -22 -9 -30 -9 -10 0 -8 3 5 9 27 12 43 12 25 0z m-2800
-110 c0 -5 -2 -10 -4 -10 -3 0 -8 5 -11 10 -3 6 -1 10 4 10 6 0 11 -4 11 -10z"/>
<path d="M4645 5223 c-16 -2 -82 -10 -146 -18 -148 -19 -297 -57 -377 -96 -65
-32 -132 -83 -132 -101 0 -6 16 4 35 21 93 81 280 138 560 171 94 11 175 22
180 24 12 5 -79 4 -120 -1z"/>
<path d="M4793 5223 c9 -2 25 -2 35 0 9 3 1 5 -18 5 -19 0 -27 -2 -17 -5z"/>
<path d="M4768 5183 c7 -3 16 -2 19 1 4 3 -2 6 -13 5 -11 0 -14 -3 -6 -6z"/>
<path d="M4818 5183 c12 -2 30 -2 40 0 9 3 -1 5 -23 4 -22 0 -30 -2 -17 -4z"/>
<path d="M4635 5168 c-161 -39 -208 -53 -271 -79 -40 -17 -80 -39 -90 -51 -14
-15 -3 -11 46 15 87 47 252 96 400 120 17 3 14 4 -10 5 -19 0 -53 -4 -75 -10z"/>
<path d="M4696 5134 c-136 -18 -275 -59 -306 -89 l-24 -25 34 -36 c53 -55 134
-91 231 -104 143 -17 441 -13 539 9 99 22 320 92 371 116 45 23 80 67 68 86
-7 12 -9 12 -9 -2 0 -34 -58 -70 -186 -115 -233 -82 -270 -88 -519 -89 -248 0
-357 16 -401 60 -22 22 -23 25 -7 55 8 17 29 40 47 51 17 10 27 19 21 19 -27
0 -74 -41 -85 -74 -6 -20 -15 -36 -19 -36 -4 0 -19 13 -34 28 -37 39 -23 54
78 85 153 47 336 67 545 60 107 -3 117 -6 137 -28 62 -69 -67 -145 -246 -145
-92 0 -211 16 -224 30 -18 16 13 46 65 62 98 32 189 50 233 46 24 -1 41 0 38
5 -2 4 -47 7 -99 7 -52 0 -93 -4 -90 -9 3 -5 -16 -14 -42 -21 -69 -17 -120
-40 -126 -57 -15 -39 40 -71 129 -75 l40 -1 -35 -5 c-26 -3 -30 -6 -17 -11 28
-10 202 7 304 30 79 18 101 27 158 71 61 45 66 52 51 66 -8 8 -46 23 -83 33
-85 22 -386 24 -537 3z m564 -28 c25 -7 44 -16 43 -20 -3 -12 -110 -86 -124
-86 -8 0 -3 7 9 16 24 16 29 53 12 85 -13 23 -3 24 60 5z"/>
<path d="M4735 5090 c-3 -6 1 -7 9 -4 18 7 21 14 7 14 -6 0 -13 -4 -16 -10z"/>
<path d="M4995 5070 c-24 -7 -18 -8 28 -6 38 2 56 -1 54 -8 -2 -6 -34 -12 -73
-13 -38 -1 -87 -9 -109 -17 l-40 -16 95 3 c98 3 166 25 157 50 -4 15 -71 18
-112 7z"/>
<path d="M5198 4953 c7 -3 16 -2 19 1 4 3 -2 6 -13 5 -11 0 -14 -3 -6 -6z"/>
<path d="M3980 4839 c0 -45 2 -80 4 -78 9 9 13 149 5 155 -5 3 -9 -31 -9 -77z"/>
<path d="M4048 4821 c-5 -18 -8 -48 -7 -65 0 -30 0 -31 10 -6 6 13 9 42 7 65
l-3 40 -7 -34z"/>
<path d="M4159 4767 c-3 -20 -2 -42 2 -48 12 -20 17 5 10 46 l-7 40 -5 -38z"/>
<path d="M4442 4745 c0 -16 2 -22 5 -12 2 9 2 23 0 30 -3 6 -5 -1 -5 -18z"/>
<path d="M5407 4733 c-3 -16 -1 -35 4 -43 6 -10 8 -2 9 28 0 48 -5 55 -13 15z"/>
<path d="M4230 4720 c0 -5 5 -10 11 -10 5 0 7 5 4 10 -3 6 -8 10 -11 10 -2 0
-4 -4 -4 -10z"/>
<path d="M3602 4610 c0 -30 4 -66 8 -80 6 -19 8 -9 8 35 0 33 -3 69 -8 80 -6
14 -9 4 -8 -35z"/>
<path d="M5910 4610 c0 -5 5 -10 11 -10 5 0 7 5 4 10 -3 6 -8 10 -11 10 -2 0
-4 -4 -4 -10z"/>
<path d="M3691 4594 c0 -11 3 -14 6 -6 3 7 2 16 -1 19 -3 4 -6 -2 -5 -13z"/>
<path d="M5654 4582 c-14 -9 -18 -139 -4 -147 5 -3 10 -5 11 -3 5 23 13 158 9
158 -3 0 -10 -4 -16 -8z"/>
<path d="M3695 4560 c3 -5 8 -10 11 -10 2 0 4 5 4 10 0 6 -5 10 -11 10 -5 0
-7 -4 -4 -10z"/>
<path d="M5915 4560 c-3 -5 -1 -18 4 -27 9 -16 10 -14 11 10 0 28 -5 34 -15
17z"/>
<path d="M3810 4533 c0 -18 5 -33 10 -33 13 0 13 30 0 50 -7 11 -10 7 -10 -17z"/>
<path d="M3700 4521 c0 -5 5 -13 10 -16 6 -3 10 -2 10 4 0 5 -4 13 -10 16 -5
3 -10 2 -10 -4z"/>
<path d="M3973 4495 c0 -22 2 -30 4 -17 2 12 2 30 0 40 -3 9 -5 -1 -4 -23z"/>
<path d="M4030 4520 c0 -5 5 -10 11 -10 5 0 7 5 4 10 -3 6 -8 10 -11 10 -2 0
-4 -4 -4 -10z"/>
<path d="M5495 4487 c-8 -54 -3 -113 10 -110 12 3 15 142 4 149 -4 2 -11 -15
-14 -39z"/>
<path d="M4585 4460 c-9 -14 -3 -100 7 -100 4 0 8 25 8 55 0 55 -3 64 -15 45z"/>
<path d="M5137 4420 c-4 -31 -2 -59 3 -64 16 -16 23 21 13 72 l-9 47 -7 -55z"/>
<path d="M4030 4450 c0 -5 5 -10 10 -10 6 0 10 5 10 10 0 6 -4 10 -10 10 -5 0
-10 -4 -10 -10z"/>
<path d="M4096 4449 c-9 -21 -2 -529 8 -551 12 -26 30 -22 21 5 -4 12 -9 135
-12 272 -2 138 -5 259 -7 270 -2 17 -4 17 -10 4z"/>
<path d="M4739 4453 c0 -5 -2 -27 -5 -50 -3 -23 0 -44 6 -48 6 -4 10 13 10 49
0 31 -2 56 -5 56 -3 0 -5 -3 -6 -7z"/>
<path d="M4802 4393 c2 -38 8 -68 13 -68 6 0 10 14 9 30 -2 85 -5 105 -14 105
-7 0 -10 -25 -8 -67z"/>
<path d="M4906 4396 c-16 -89 15 -536 37 -536 9 0 2 170 -9 217 -3 12 -9 100
-13 195 -6 141 -8 164 -15 124z"/>
<path d="M3602 4320 c-18 -29 -15 -34 12 -17 13 9 26 13 30 10 18 -18 -8 -110
-46 -166 l-19 -27 31 -28 c18 -15 45 -34 61 -43 47 -27 59 -40 59 -66 0 -25 0
-25 -26 -8 -15 9 -23 12 -19 6 8 -14 81 -61 92 -61 5 0 0 7 -11 15 -12 9 -16
20 -12 31 6 15 9 15 31 -6 32 -30 53 -22 27 11 -20 25 -20 25 -1 119 20 98 21
150 4 162 -19 14 -63 8 -86 -12 -20 -16 -21 -19 -7 -20 11 0 15 -5 12 -15 -5
-13 -2 -14 20 -5 30 11 30 16 -4 -104 l-16 -58 -48 41 c-26 22 -51 41 -56 41
-9 0 51 143 63 148 11 6 8 47 -5 60 -19 19 -72 15 -86 -8z m175 -262 c-3 -8
-6 -5 -6 6 -1 11 2 17 5 13 3 -3 4 -12 1 -19z"/>
<path d="M3615 4040 c10 -11 20 -20 23 -20 3 0 -3 9 -13 20 -10 11 -20 20 -23
20 -3 0 3 -9 13 -20z"/>
<path d="M5025 4027 c-29 -15 -48 -37 -41 -44 3 -3 1 -12 -6 -20 -6 -7 -8 -17
-4 -21 4 -4 19 7 32 23 l24 30 0 -82 c0 -61 4 -86 16 -97 35 -36 40 -21 36
107 -3 79 -7 99 -20 106 -11 6 -25 5 -37 -2z"/>
<path d="M6120 5010 c0 -35 4 -60 11 -60 6 0 9 23 8 60 -1 33 -6 60 -11 60 -4
0 -8 -27 -8 -60z"/>
<path d="M3447 5020 c-3 -11 -1 -20 4 -20 5 0 9 9 9 20 0 11 -2 20 -4 20 -2 0
-6 -9 -9 -20z"/>
<path d="M2957 4673 c-3 -5 -1 -17 4 -28 7 -17 8 -17 8 8 1 27 -4 34 -12 20z"/>
<path d="M4650 4685 c0 -37 4 -65 10 -65 6 0 10 28 10 65 0 37 -4 65 -10 65
-6 0 -10 -28 -10 -65z"/>
<path d="M4885 4704 c-4 -29 -3 -50 4 -57 8 -8 11 5 11 46 0 31 -2 57 -4 57
-2 0 -7 -21 -11 -46z"/>
<path d="M4800 4680 c0 -33 4 -60 10 -60 6 0 10 27 10 60 0 33 -4 60 -10 60
-6 0 -10 -27 -10 -60z"/>
<path d="M2894 4040 c2 -47 9 -96 15 -110 7 -18 8 1 4 70 -3 52 -10 102 -15
110 -6 10 -7 -16 -4 -70z"/>
<path d="M3007 4053 c-9 -8 -9 -80 -1 -110 12 -46 23 -21 19 43 -5 70 -7 78
-18 67z"/>
<path d="M3119 3925 c-11 -50 52 -550 74 -585 6 -11 17 -20 24 -20 7 0 16 -7
21 -16 6 -11 26 -18 56 -21 25 -2 57 -8 71 -13 33 -13 71 2 81 32 14 40 7 204
-10 237 -29 55 -88 52 -112 -5 -9 -21 -14 -69 -14 -129 0 -107 -14 -120 -25
-23 -9 86 -33 206 -47 232 -11 20 -12 20 -22 2 -40 -68 -42 -67 -55 40 -29
233 -38 288 -42 269z m289 -390 c17 -36 15 -38 -13 -19 -14 9 -25 13 -25 9 0
-4 11 -20 25 -37 20 -23 25 -41 25 -83 0 -30 -5 -66 -12 -80 -29 -64 -63 2
-62 122 1 81 12 113 39 113 6 0 17 -11 23 -25z m-191 -52 c1 -10 5 -46 9 -80
6 -52 4 -63 -8 -63 -11 0 -18 21 -26 81 -7 45 -9 86 -6 91 8 13 27 -6 31 -29z"/>
<path d="M3300 3885 c0 -30 5 -55 10 -55 6 0 10 25 10 55 0 30 -4 55 -10 55
-5 0 -10 -25 -10 -55z"/>
<path d="M3622 3795 c2 -36 10 -71 17 -77 11 -11 12 -3 7 42 -3 30 -6 65 -6
78 0 12 -5 22 -11 22 -8 0 -10 -21 -7 -65z"/>
<path d="M3923 3785 c0 -22 2 -30 4 -17 2 12 2 30 0 40 -3 9 -5 -1 -4 -23z"/>
<path d="M4032 3738 c4 -92 23 -93 23 -1 0 45 -4 68 -13 71 -10 3 -12 -13 -10
-70z"/>
<path d="M4300 3738 c0 -77 16 -111 22 -48 5 54 -2 110 -13 110 -5 0 -9 -28
-9 -62z"/>
<path d="M4490 3731 c0 -41 4 -71 10 -71 6 0 10 28 10 64 0 36 -4 68 -10 71
-6 4 -10 -20 -10 -64z"/>
<path d="M4544 3774 c3 -9 6 -36 6 -60 0 -24 5 -44 10 -44 6 0 10 27 10 60 0
48 -3 60 -16 60 -11 0 -14 -5 -10 -16z"/>
<path d="M3892 3740 c0 -19 2 -27 5 -17 2 9 2 25 0 35 -3 9 -5 1 -5 -18z"/>
<path d="M5171 3694 c0 -37 2 -77 5 -90 12 -47 24 -11 24 72 0 65 -3 84 -14
84 -10 0 -14 -17 -15 -66z"/>
<path d="M5347 3753 c-11 -11 -8 -153 3 -153 6 0 10 33 10 80 0 80 -1 86 -13
73z"/>
<path d="M5490 3728 c0 -30 18 -129 25 -136 13 -14 15 12 5 74 -11 71 -30 110
-30 62z"/>
<path d="M5090 3683 c0 -32 5 -65 10 -73 5 -8 10 -13 11 -10 11 55 4 140 -12
140 -5 0 -9 -26 -9 -57z"/>
<path d="M5445 3633 c3 -54 7 -118 9 -143 2 -25 7 -94 11 -155 8 -146 34 -345
46 -364 9 -14 4 125 -6 179 -1 8 -6 58 -9 110 -4 52 -14 176 -21 275 -8 99
-15 183 -15 188 0 4 -4 7 -9 7 -6 0 -8 -40 -6 -97z"/>
<path d="M5656 3704 c-8 -21 -6 -105 3 -128 7 -18 8 -18 14 5 17 62 2 171 -17
123z"/>
<path d="M5704 3643 c2 -32 4 -68 5 -81 0 -13 6 -20 11 -17 6 3 10 40 10 81 0
58 -3 74 -15 74 -11 0 -14 -12 -11 -57z"/>
<path d="M2891 3644 c0 -11 3 -14 6 -6 3 7 2 16 -1 19 -3 4 -6 -2 -5 -13z"/>
<path d="M5940 3610 c0 -27 5 -50 10 -50 6 0 10 23 10 50 0 28 -4 50 -10 50
-5 0 -10 -22 -10 -50z"/>
<path d="M6100 3537 c0 -25 4 -49 10 -52 6 -4 7 11 3 42 -8 63 -13 67 -13 10z"/>
<path d="M4084 3410 c-11 -5 -34 -24 -52 -44 -53 -61 -40 -124 31 -141 24 -6
27 -12 27 -45 0 -21 4 -50 9 -63 10 -26 50 -43 56 -24 2 7 6 74 8 149 4 95 1
141 -6 151 -15 19 -47 26 -73 17z m16 -44 c0 -7 -3 -34 -6 -60 -6 -40 -10 -46
-30 -46 -21 0 -24 5 -24 34 0 19 9 45 21 60 22 28 39 34 39 12z"/>
<path d="M6457 3403 c-4 -3 -6 -34 -6 -67 l2 -61 7 65 c8 68 8 74 -3 63z"/>
<path d="M4828 3328 c-46 -38 -62 -103 -32 -133 13 -12 14 -19 5 -28 -19 -19
-13 -95 9 -117 22 -22 78 -27 111 -10 25 14 49 62 49 100 0 23 -6 33 -25 42
-28 13 -31 25 -10 52 22 29 19 72 -7 90 -27 19 -78 21 -100 4z m73 -18 c29
-16 22 -43 -17 -62 -54 -28 -68 -24 -60 15 6 30 29 57 49 57 4 0 17 -5 28 -10z
m-21 -95 c-14 -16 -60 -21 -60 -6 0 6 15 12 33 14 17 2 34 5 36 5 2 1 -2 -5
-9 -13z m18 -65 c37 -23 41 -51 12 -80 -22 -22 -42 -25 -71 -10 -24 13 -26 66
-2 92 20 22 21 22 61 -2z m42 10 c0 -5 -7 -7 -15 -4 -8 4 -15 8 -15 10 0 2 7
4 15 4 8 0 15 -4 15 -10z"/>
<path d="M5577 3250 c-7 -27 -1 -30 75 -30 71 0 77 -3 55 -29 -17 -20 -74
-147 -82 -183 -12 -47 11 -31 35 25 41 97 72 158 77 154 2 -3 -9 -38 -26 -78
-36 -86 -40 -116 -11 -81 25 30 57 117 61 167 4 39 3 40 -31 46 l-35 6 33 2
c20 0 31 5 27 11 -4 6 -43 10 -90 9 -72 -1 -84 -4 -88 -19z m106 -7 c-7 -2
-19 -2 -25 0 -7 3 -2 5 12 5 14 0 19 -2 13 -5z"/>
<path d="M6560 2513 c0 -16 5 -35 10 -43 7 -11 10 -4 10 28 0 23 -4 42 -10 42
-5 0 -10 -12 -10 -27z"/>
<path d="M5365 5284 c39 -7 79 -13 90 -12 11 0 -9 6 -45 14 -36 7 -76 13 -90
12 -14 0 7 -6 45 -14z"/>
<path d="M5158 5283 c6 -2 18 -2 25 0 6 3 1 5 -13 5 -14 0 -19 -2 -12 -5z"/>
<path d="M5578 5243 c7 -3 16 -2 19 1 4 3 -2 6 -13 5 -11 0 -14 -3 -6 -6z"/>
<path d="M2770 4230 c0 -5 5 -10 11 -10 5 0 7 5 4 10 -3 6 -8 10 -11 10 -2 0
-4 -4 -4 -10z"/>
<path d="M6205 2272 c-9 -42 -21 -90 -25 -107 -19 -64 -24 -137 -9 -146 26
-16 53 -9 86 23 l33 32 0 -56 c0 -38 5 -60 15 -68 26 -21 33 -1 37 102 3 73 9
102 21 116 22 24 21 32 -3 32 -13 0 -20 7 -20 19 0 11 -4 22 -8 25 -9 6 -24
-20 -38 -68 -5 -16 -15 -31 -23 -34 -12 -4 -13 8 -6 74 13 131 13 126 -17 130
-26 2 -28 0 -43 -74z m4 -196 c-9 -8 -10 -5 -5 14 3 14 7 34 7 45 1 11 4 5 6
-14 3 -19 -1 -39 -8 -45z"/>
<path d="M5235 2198 c4 -35 12 -70 17 -78 6 -10 7 1 4 34 -3 27 -6 62 -6 77 0
16 -5 29 -11 29 -8 0 -9 -19 -4 -62z"/>
<path d="M5038 2233 c7 -3 16 -2 19 1 4 3 -2 6 -13 5 -11 0 -14 -3 -6 -6z"/>
<path d="M5140 2218 c0 -58 25 -228 33 -228 10 0 5 114 -9 198 -7 46 -24 67
-24 30z"/>
<path d="M4865 2204 c-143 -31 -419 -78 -565 -98 -350 -46 -521 -56 -995 -56
l-410 0 3 -57 c3 -71 10 -103 20 -103 5 0 5 30 0 66 -4 37 -5 70 -3 74 6 10
447 1 457 -9 4 -3 10 -33 14 -66 3 -33 8 -62 10 -64 10 -11 12 9 5 69 -5 36
-8 66 -7 66 0 1 87 4 193 7 l191 5 0 -157 c-1 -272 29 -672 53 -711 9 -15 8 2
-11 235 -5 66 -12 176 -15 245 -3 69 -8 185 -11 258 l-6 132 36 0 36 0 1 -70
c1 -38 3 -74 4 -80 1 -5 3 -14 4 -20 0 -5 6 -10 12 -10 6 0 8 8 5 18 -7 23
-12 160 -6 165 3 3 38 7 79 9 l73 3 2 -89 c1 -60 5 -91 13 -93 9 -3 11 20 9
91 -4 99 -1 106 44 106 23 0 30 -19 30 -78 0 -55 9 -92 21 -92 8 0 8 15 -6
122 l-7 47 34 5 c18 3 103 15 188 26 146 20 207 30 390 66 120 24 254 55 259
60 8 8 -34 2 -144 -22z"/>
<path d="M5083 2159 c3 -28 11 -57 18 -63 9 -8 10 -5 5 14 -3 14 -6 42 -6 63
0 20 -5 37 -11 37 -7 0 -9 -18 -6 -51z"/>
<path d="M5001 2184 c0 -11 3 -14 6 -6 3 7 2 16 -1 19 -3 4 -6 -2 -5 -13z"/>
<path d="M4910 2130 c-4 -39 1 -93 11 -110 11 -19 11 27 0 90 -6 31 -9 37 -11
20z"/>
<path d="M5001 2140 c0 -8 4 -24 9 -35 l9 -20 0 20 c0 11 -4 27 -9 35 -9 13
-10 13 -9 0z"/>
<path d="M4817 2103 c8 -58 24 -116 30 -110 3 3 2 38 -2 76 -5 49 -11 71 -20
71 -10 0 -12 -10 -8 -37z"/>
<path d="M4727 2083 c1 -21 4 -193 8 -383 6 -369 10 -430 27 -430 13 0 3 600
-12 745 -5 50 -10 93 -10 98 0 4 -3 7 -8 7 -4 0 -6 -17 -5 -37z"/>
<path d="M2288 2103 c-17 -4 -18 -28 -18 -330 0 -180 3 -323 7 -319 4 3 6 148
6 320 -2 313 -2 314 20 324 23 11 15 13 -15 5z"/>
<path d="M2390 2101 c8 -5 103 -14 210 -21 107 -6 205 -13 218 -16 27 -5 29
-24 3 -31 -11 -3 -17 -11 -14 -18 6 -17 33 -8 54 19 16 20 15 21 -18 32 -35
12 -95 19 -268 29 -49 3 -115 8 -145 11 -37 3 -50 2 -40 -5z"/>
<path d="M4610 2021 c0 -49 5 -93 10 -96 6 -4 10 26 10 84 0 49 -4 93 -10 96
-6 4 -10 -26 -10 -84z"/>
<path d="M4498 2018 c1 -46 5 -90 8 -98 12 -31 20 25 15 99 -8 104 -27 103
-23 -1z"/>
<path d="M2357 2069 c4 -4 44 -10 88 -13 84 -5 72 0 -33 13 -34 4 -59 4 -55 0z"/>
<path d="M4305 2023 c9 -77 23 -131 37 -139 8 -5 9 7 5 42 -15 121 -20 143
-34 149 -13 4 -14 -4 -8 -52z"/>
<path d="M4236 1933 c6 -157 14 -203 25 -133 7 52 -11 270 -23 270 -4 0 -6
-62 -2 -137z"/>
<path d="M4390 2011 c0 -59 15 -119 26 -108 9 9 -7 167 -17 167 -5 0 -9 -27
-9 -59z"/>
<path d="M2580 2040 c30 -5 71 -8 90 -8 28 1 25 2 -15 8 -27 5 -68 8 -90 8
-35 -1 -33 -2 15 -8z"/>
<path d="M3937 2033 c-9 -16 1 -125 12 -136 10 -9 11 5 5 63 -7 78 -9 87 -17
73z"/>
<path d="M2733 2023 c9 -2 25 -2 35 0 9 3 1 5 -18 5 -19 0 -27 -2 -17 -5z"/>
<path d="M3278 1913 c-4 -131 1 -191 13 -172 12 19 11 266 0 274 -6 3 -11 -39
-13 -102z"/>
<path d="M3671 1953 c0 -43 3 -73 9 -73 12 0 12 96 1 125 -6 13 -9 -5 -10 -52z"/>
<path d="M3004 1964 c3 -26 6 -57 6 -70 0 -13 5 -24 10 -24 11 0 13 46 4 103
-10 55 -28 47 -20 -9z"/>
<path d="M3495 1940 c3 -41 10 -79 16 -85 8 -7 9 8 3 50 -11 95 -25 121 -19
35z"/>
<path d="M3117 1963 c8 -50 13 -55 13 -10 0 20 -4 38 -9 42 -6 3 -7 -10 -4
-32z"/>
<path d="M3180 1933 c0 -36 2 -64 5 -61 10 9 14 128 5 128 -6 0 -10 -30 -10
-67z"/>
<path d="M2828 1936 c-10 -59 -10 -123 -2 -165 5 -25 16 -35 61 -55 61 -28 82
-63 85 -141 3 -56 -21 -90 -88 -128 -51 -29 -30 -27 44 4 73 32 97 118 56 200
-18 36 -71 79 -105 86 -16 3 -30 6 -30 7 -1 0 -4 55 -8 121 -5 104 -7 113 -13
71z"/>
<path d="M3609 1968 c-1 -7 -3 -23 -4 -35 -1 -12 2 -27 6 -35 6 -8 9 5 9 35 0
26 -2 47 -5 47 -3 0 -6 -6 -6 -12z"/>
<path d="M2797 1945 c-4 -8 -3 -16 1 -19 4 -3 9 4 9 15 2 23 -3 25 -10 4z"/>
<path d="M5370 1882 c-26 -12 -36 -24 -38 -46 l-4 -28 33 23 c22 16 47 23 78
23 45 1 46 1 43 -29 -5 -40 -37 -73 -84 -87 -26 -8 -35 -15 -29 -21 7 -7 25
-5 53 6 37 14 40 14 23 1 -11 -8 -39 -20 -62 -27 -68 -18 -50 -29 32 -22 65 6
79 5 95 -10 27 -24 25 -40 -7 -65 -19 -15 -40 -21 -68 -20 -56 2 -62 1 -45
-10 20 -13 117 -13 125 0 3 6 11 10 18 10 6 0 4 -7 -6 -17 -11 -12 -40 -19
-92 -22 -60 -5 -73 -9 -66 -20 12 -19 97 -26 148 -12 51 14 83 62 83 124 0 58
-22 87 -66 87 l-34 0 20 20 c21 21 40 61 40 85 0 7 -12 27 -26 44 -23 27 -32
31 -77 31 -29 0 -67 -8 -87 -18z m186 -193 c13 -22 -12 -30 -31 -9 -18 19 -18
20 3 20 11 0 24 -5 28 -11z"/>
<path d="M2793 1855 c5 -50 17 -56 17 -7 0 23 -4 42 -10 42 -5 0 -8 -16 -7
-35z"/>
<path d="M4480 1722 c-57 -26 -98 -79 -82 -107 6 -11 16 -8 51 16 44 29 91 39
91 18 0 -33 -88 -191 -146 -263 l-67 -81 43 -7 c29 -5 48 -3 63 7 12 7 57 19
99 25 42 7 76 17 75 23 -1 6 13 14 31 17 52 12 52 23 0 17 -55 -7 -62 -1 -18
14 31 11 41 29 15 29 -8 0 -38 -9 -67 -20 -29 -11 -56 -20 -60 -20 -4 0 13 32
39 72 42 64 47 79 51 143 4 70 4 72 -28 98 -31 26 -60 32 -90 19z m70 -32 c11
-7 6 -10 -21 -10 -22 0 -51 -10 -73 -25 -44 -30 -47 -23 -5 16 32 30 71 37 99
19z m-60 -340 c0 -5 -7 -10 -16 -10 -8 0 -12 5 -9 10 3 6 10 10 16 10 5 0 9
-4 9 -10z"/>
<path d="M2658 1663 c-39 -6 -78 -56 -72 -90 8 -44 36 -65 84 -65 57 1 90 32
90 83 0 30 -6 42 -29 58 -16 12 -33 20 -38 20 -4 -1 -20 -4 -35 -6z m50 -24
c40 -14 47 -34 24 -73 -15 -24 -25 -31 -47 -29 -16 1 -32 8 -37 15 -6 10 -8
10 -8 1 0 -7 -7 -13 -15 -13 -24 0 -19 60 7 87 24 26 33 27 76 12z"/>
<path d="M2636 1591 c-4 -7 -5 -15 -2 -18 9 -9 19 4 14 18 -4 11 -6 11 -12 0z"/>
<path d="M3543 1607 c-14 -23 -39 -58 -55 -77 -15 -19 -28 -40 -28 -47 0 -21
28 -15 44 9 9 12 16 18 16 12 0 -5 -5 -15 -11 -21 -8 -8 -7 -13 2 -18 7 -5 19
1 30 16 18 24 19 23 19 -93 l0 -118 -55 0 c-30 0 -55 -4 -55 -10 0 -5 9 -10
19 -10 11 0 21 -6 23 -12 5 -14 166 -25 196 -13 15 6 15 8 -7 26 -13 10 -38
19 -57 19 l-34 0 2 88 c1 48 3 67 5 42 6 -79 13 -111 25 -104 14 9 3 296 -12
323 -19 36 -39 32 -67 -12z m54 -149 c-3 -7 -5 -2 -5 12 0 14 2 19 5 13 2 -7
2 -19 0 -25z"/>
<path d="M2273 1350 c0 -47 2 -66 4 -42 2 23 2 61 0 85 -2 23 -4 4 -4 -43z"/>
<path d="M2262 1240 c0 -14 2 -19 5 -12 2 6 2 18 0 25 -3 6 -5 1 -5 -13z"/>
<path d="M2284 1171 c3 -4 29 -12 58 -15 29 -4 100 -14 158 -22 124 -17 320
-27 275 -15 -26 7 -27 9 -7 10 13 0 21 5 18 9 -3 5 -35 9 -71 10 -37 0 -85 3
-108 7 -31 4 -38 3 -27 -4 22 -16 -3 -14 -160 9 -74 11 -136 20 -138 20 -2 0
-1 -4 2 -9z"/>
<path d="M2443 1173 c9 -2 23 -2 30 0 6 3 -1 5 -18 5 -16 0 -22 -2 -12 -5z"/>
<path d="M2498 1163 c6 -2 18 -2 25 0 6 3 1 5 -13 5 -14 0 -19 -2 -12 -5z"/>
</g>
</svg>
